<svg id="Layer_25" data-name="Layer 25" xmlns="http://www.w3.org/2000/svg" viewBox="0 0 168 72"><title>Bandier</title><path d="M13.83,49.08H1.76V24H13.35c5.73,0,9.08,2.39,9.08,6.81A5.47,5.47,0,0,1,19,36.06v.36a5.74,5.74,0,0,1,4.3,5.5C23.26,46.69,19.56,49.08,13.83,49.08ZM13.35,27.7H6v7.05h7.4c3,0,4.78-1.43,4.78-3.46C18.13,28.9,16.34,27.7,13.35,27.7ZM6,38.09V45.5h8c2.86,0,4.89-1.31,4.89-3.7,0-2.15-1.91-3.59-4.65-3.59H6ZM38,24h-.83L24.58,49.08h4.66l.12-.24,7.76-16.36.36-.72h.24l.35.72L45.72,48.6l.24.48h4.77ZM76.41,49.08H75.34L57.9,32.24V49.08H53.72V24H54.8L72.23,40.6V24h4.18Zm15.17,0H82.15V24h9.43C99.7,24,105,29,105,36.54S99.7,49.08,91.58,49.08ZM86.45,27.7V45.38h4.89c5.38,0,9.44-3.23,9.44-8.84s-4.06-8.84-9.44-8.84ZM114,49.08h-4.18V24H114Zm23.41-10.63H124.79v6.93h14.93v3.7H120.61V24h19.11v3.7H124.79V35h12.66Zm7-14.45h10.87c6.33,0,10.16,3.11,10.16,8.48a7.74,7.74,0,0,1-5.26,7.76v.24l6.21,8v.6h-4.66L155.6,41.2h-7.16v7.88h-4.19V24Zm10.75,3.7h-6.57v9.92h6.93c3.47,0,5.73-1.56,5.73-4.9S159,27.7,155.24,27.7Z"/></svg>