<svg id="Layer_26" data-name="Layer 26" xmlns="http://www.w3.org/2000/svg" viewBox="0 0 168 72"><title>billy_reid</title><path d="M14,35.69a3.84,3.84,0,0,0,2.06-3.8c0-3.57-2.83-4.59-5.89-4.59H5.72V40.54c-.09,1.43-.19,2.68-.23,3-.11.86-.24,1.18-1.06,1.18H3.14c-.18,0-.24.05-.24.18v.7c0,.11.05.16.37.16.51,0,2.08-.08,3.4-.08,1.13,0,2.16.08,4,.08,2.45,0,4-.26,5.09-1a5.22,5.22,0,0,0,2.06-4C17.83,38.15,16.31,36.58,14,35.69Zm-6.38-.26V28.9h2.54c1.57,0,4,.38,4,3.07,0,3-2.59,3.46-4.53,3.46Zm3.16,9.48C8.55,44.91,8,43.82,8,41.37V37H9.19c2.71,0,5.87.32,5.87,3.63S13,44.91,10.77,44.91Z"/><path d="M28.86,44.72H27.77c-.86,0-1.26-.13-1.26-1l-.19-5.39V27.3h-2.4V42.45c0,.86-.07,1.43-.08,1.5-.1.69-.66.77-1.2.77h-1.5c-.13,0-.21.05-.21.16v.72c0,.11.08.16.21.16.3,0,1.44-.08,4-.08,2.32,0,3.39.08,3.7.08s.24,0,.24-.16v-.69C29.07,44.78,29,44.72,28.86,44.72Z"/><path d="M144,44.72h-1.1c-.85,0-1.25-.13-1.25-1l-.19-5.43v-11h-2.4V42.44c0,.87-.07,1.43-.07,1.51-.11.69-.67.77-1.2.77h-1.5c-.13,0-.21.05-.21.16v.72c0,.11.08.16.21.16.3,0,1.45-.08,4-.08,2.32,0,3.39.08,3.7.08s.24,0,.24-.16v-.69C144.24,44.78,144.16,44.72,144,44.72Z"/><path d="M49.7,40.22l-.42-.16c-.11-.06-.16,0-.21.11-.38,1-2,4.23-3.55,4.48-.82.1-6.1.05-6.69,0-.08-1.09-.08-6.86-.08-7.31v-10H36.26V39.44c0,2.13,0,4.28,0,4.56s-.15.72-1.13.72H33.79c-.16,0-.19.05-.19.19v.67c0,.13,0,.18.21.18s1.31-.08,3.4-.08c2.83,0,10.53,0,11.23.08.16-.72,1.23-5.09,1.3-5.31S49.78,40.28,49.7,40.22Z"/><path d="M69.42,40.22,69,40.06c-.11-.06-.16,0-.22.11-.37,1-2,4.23-3.55,4.48-.82.1-6.1.05-6.69,0-.08-1.09-.08-6.86-.08-7.31v-10H56V39.43c0,2.14,0,4.29,0,4.57s-.16.72-1.13.72H53.5c-.16,0-.19.05-.19.19v.67c0,.13,0,.18.21.18s1.31-.08,3.4-.08c2.83,0,10.53,0,11.23.08.16-.72,1.22-5.09,1.3-5.31S69.5,40.28,69.42,40.22Z"/><path d="M85,28.4l.67-1h-2l-5.82,9-5.66-9.1H70l4.52,7.07c.84,1.57,1.53,2.9,1.67,3.18V39.1c0,2.47,0,4.59-.08,4.95s-.24.67-.94.67h-1.3c-.16,0-.19.08-.19.19v.64c0,.13.06.21.16.21.29,0,1.13-.08,3.52-.08s3.28.08,3.6.08.18-.08.18-.24v-.61c0-.11,0-.19-.18-.19H80c-.7,0-1.1-.08-1.17-.93a3.42,3.42,0,0,0,0-.47V38Z"/><path d="M113.91,44.72a3.15,3.15,0,0,1-1.92-.45,21.89,21.89,0,0,1-2.35-3.07c-.21-.34-2.1-3.07-2.42-3.39A3.29,3.29,0,0,0,105,36.49v-.05a4.39,4.39,0,0,0,4.14-4.3c0-3.39-2.16-4.83-5.47-4.83H98.89V43.83c0,.72-.46.91-1,.91H96.76c-.14,0-.14.08-.14.21v.6c0,.13,0,.21.22.21s.9-.08,3.33-.08,3.2.08,3.49.08.3,0,.3-.24V45c0-.14,0-.22-.22-.22H102c-.4,0-.61-.48-.66-1,0-.4-.06-3.39-.06-5V37.23a3.75,3.75,0,0,1,.88-.08,3.34,3.34,0,0,1,2.88,1.54c.32.38,1.6,2.3,1.7,2.48s1.57,2.75,1.78,3.07a13.92,13.92,0,0,0,1.13,1.52c.4,0,1.39-.08,2.17-.08,1.17,0,1.86.08,2.07.08s.22-.08.22-.24V45c0-.15-.06-.24-.24-.24ZM101.07,28.88h1.53c2.53,0,4.69.18,4.69,3.22,0,2.59-2.48,3.4-4.64,3.4h-1.58Z"/><path d="M132.78,41.07l-.43-.24c-.16-.08-.24,0-.31.16a26,26,0,0,1-2.19,2.8,5.24,5.24,0,0,1-2.32.94c-.57.05-1.9.08-2.35.08a11.86,11.86,0,0,1-2-.19c-.82-.16-1.49-.7-1.52-2.08,0-.54-.05-3.12-.05-4.56V36.32c.42,0,2.26,0,3.52.13a1.26,1.26,0,0,1,1.13,1c.08.3.24.91.29,1.26,0,.18.08.26.22.23l.57-.08a.18.18,0,0,0,.15-.21h0c-.05-.57-.15-1.84-.15-2.77V35h-5.82V28.9h8.87V27.17H119.18V43.55c0,1-.11,1.17-1.34,1.17h-1.06c-.19,0-.27,0-.27.14v.72c0,.13.08.18.25.18.48,0,1.41-.08,3.39-.08,8.29,0,10.4.08,10.67.08a.55.55,0,0,0,.56-.4l1.42-3.92c.11-.21.11-.29,0-.37Z"/><path d="M163.18,30l-.17-.18-.13-.13h0l-.56-.57a4.74,4.74,0,0,0-1.39-.77,11.61,11.61,0,0,0-4.8-.9h-5V28.6l.1,9c0,2.59-.1,6-.17,6.46s-.34.64-.85.64H148.4c-.13,0-.21.05-.21.15v.69c0,.14.05.19.18.19.38,0,1.44-.08,3.76-.08H156a10.34,10.34,0,0,0,7.88-2.73c1.29-1.26,2.08-3.39,2.08-6.44A10.35,10.35,0,0,0,163.18,30Zm.57,6a9.75,9.75,0,0,1-1.95,6,7.18,7.18,0,0,1-6,2.83c-1.34,0-1.3-.26-1.7-.82a2.5,2.5,0,0,1-.45-1.5c0-1.65-.06-6.18-.06-6.53V28.9h2.19c3.09,0,6,1.06,7.35,3.93A9.19,9.19,0,0,1,163.75,36Z"/></svg>