<svg id="Layer_24" data-name="Layer 24" xmlns="http://www.w3.org/2000/svg" viewBox="0 0 168 72"><defs><style>.cls-1{fill:#fff;fill-opacity:0;}</style></defs><title>Faherty</title><rect id="ee-background" class="cls-1" x="20.35" width="126.82" height="72"/><path d="M97.7,1.85c0,.09-.08.28-.12.43-.18.75-.27,1.06-.34,1.35s-.16.6-.25,1-.19.74-.22.87-.15.56-.25,1c-.2.79-.28,1.09-.38,1.45,0,.14-.12.46-.18.71s-.14.56-.18.69-.14.52-.22.87-.2.78-.25,1-.15.6-.24.95-.19.74-.23.87-.15.56-.24.95-.22.82-.25,1-.14.56-.25,1-.21.82-.24.95-.11.41-.16.61l-.31,1.19-.25,1c-.09.35-.2.78-.25,1s-.15.6-.24.95-.19.74-.23.87-.11.41-.15.61-.14.53-.19.72c-.1.37-.16.61-.31,1.19,0,.2-.13.51-.18.67l-.2.8-.12.5-.39-.05a23.94,23.94,0,0,0-2.48-.2c-.69,0-.79,0-.79-.09s0-1.31.08-2.84c.12-3.69.22-7.15.27-9.26,0-1,.06-1.93.07-2.16s0-1.28.07-2.3.07-2.77.11-3.87.07-2.46.09-3l0-1H87.4l0,.33c0,.18,0,.66,0,1.06s0,1.54-.07,2.52-.08,2.67-.11,3.75-.06,2.14-.07,2.36,0,1.16-.07,2.1c-.08,3.16-.29,10.24-.34,11.61l0,.74h-.11a36.83,36.83,0,0,0-3.74.25,2.64,2.64,0,0,1-.44,0,.61.61,0,0,1-.06-.23l-.09-.5c0-.16-.1-.51-.16-.78s-.12-.61-.16-.79-.1-.52-.15-.77l-.18-.91c-.14-.66-.21-1-.32-1.57,0-.26-.12-.62-.15-.79s-.11-.54-.16-.8-.13-.65-.18-.87L80.6,18c0-.22-.12-.58-.16-.8s-.11-.56-.15-.75c-.09-.44-.22-1.12-.34-1.71,0-.24-.12-.6-.16-.81s-.11-.55-.16-.77-.11-.56-.15-.76-.11-.56-.34-1.72c-.14-.66-.21-1-.31-1.57,0-.26-.13-.62-.16-.79s-.11-.52-.16-.77l-.18-.92c0-.25-.12-.59-.15-.77s-.1-.48-.14-.69L78,4.75l-.27,0a2.67,2.67,0,0,0-.64.11,1.56,1.56,0,0,0,0,.33c0,.17.1.47.14.67.17.87.27,1.34.34,1.71.05.21.11.57.16.79s.11.57.16.79.11.57.15.78.11.56.16.79c.09.46.24,1.2.33,1.68l.16.76c0,.24.11.59.15.79s.12.57.17.83.13.66.17.88.12.57.16.79.11.57.16.79.11.56.15.76c.18.9.26,1.33.34,1.7.05.22.11.58.16.79l.15.8c0,.22.12.57.16.77s.11.56.16.79.12.64.18.9c.2,1,.36,1.85.47,2.36l.09.47a1.79,1.79,0,0,0,0,.25c0,.05,0,.07-.08.07l-.73.12-.74.15c-.2,0-1.58.36-1.62.38s-.06,0-.1-.13l-.36-.68-.4-.75c-.18-.35-.45-.86-.7-1.31l-.85-1.61c-.34-.65-.71-1.36-.83-1.56s-.26-.51-.34-.66l-.38-.71-.34-.64c0-.11-.18-.34-.27-.52l-.74-1.4c-.12-.21-.4-.75-.64-1.21s-.54-1-.67-1.25-.28-.54-.37-.69c-.24-.47-.47-.9-.71-1.35-.13-.24-.36-.69-.53-1l-.47-.9c-.1-.18-.32-.61-.5-1s-.42-.77-.52-1l-.31-.59-.33-.62-.36-.67-.68-1.29L65.38,3.36A1.27,1.27,0,0,0,65.14,3a3.33,3.33,0,0,0-.78.36,15.89,15.89,0,0,0,.76,1.49c.12.24.29.55.36.69l.32.6c.1.18.25.47.33.63s.26.47.36.68.5.92.84,1.58.74,1.39.86,1.61l.33.63c.15.27.39.75.69,1.29.1.21.26.5.34.66l.33.61,1,1.93,1,2,.33.61.39.75.29.54s.12.24.27.52l.71,1.35.71,1.34.28.52.34.64c.18.35.38.7.42.79s.17.32.27.51.45.84.76,1.44l.57,1.08-.12,0c-.06,0-.32.11-.58.19-.82.26-1.8.61-2.55.92a.82.82,0,0,1-.37.1s-.22-.26-.44-.54-.63-.77-.88-1.07l-.87-1.08-.58-.71-.41-.49-.4-.5c-.15-.18-1.28-1.56-2.34-2.88l-.57-.69-.88-1.07L65.43,19l-.4-.5L64.62,18l-.56-.7c-1.12-1.38-2.2-2.69-2.35-2.87l-.57-.7-1.29-1.58-1.29-1.59L58,9.86,56.94,8.57,55.66,7c-.83-1-2.18-2.67-2.43-3-.15-.17-.28-.33-.3-.34a2.81,2.81,0,0,0-.76.46.86.86,0,0,0,.15.2c.07.1.27.33.43.53l.45.55.58.72.88,1.07.87,1.07.58.71.57.7c.22.27.8,1,1.29,1.58l1.29,1.59.57.69c.09.11.57.69,1.05,1.29l1.28,1.57L63.44,18l1.45,1.78c.32.38,1.15,1.41,1.86,2.28s1.36,1.68,1.46,1.79l.68.83c.28.35.77,1,1.1,1.35s.9,1.1,1.29,1.58l1.09,1.35a6.18,6.18,0,0,1,.42.53s-.18.14-.56.33A30.78,30.78,0,0,0,69,31.57c-.09.07-.11.05-1.46-1.18l-4.43-4.07-4.33-4-3.16-2.9c-.36-.32-1.18-1.08-1.83-1.68L52,16.08l-1.86-1.7c-.66-.61-1.49-1.38-1.86-1.71s-1.46-1.33-2.44-2.24C43,7.8,41.22,6.21,41.19,6.21a3.72,3.72,0,0,0-.35.27l-.34.26.21.19c.37.34,2.55,2.36,3.87,3.56l2.5,2.3,1.84,1.69c.35.31,1.2,1.09,1.88,1.72l2.47,2.26,2.46,2.26L58.24,23,60,24.67l1.84,1.69L65,29.21l2.48,2.27c.38.34.69.62.69.64a1.15,1.15,0,0,1-.31.27c-.62.44-1.4,1.07-2,1.62l-.63.56-1.68-1-2.3-1.39-1.64-1-1.34-.81-1.91-1.15c-.86-.52-1.72-1-1.9-1.15L53,27.21l-1.41-.85-4.17-2.52-3-1.84a4.77,4.77,0,0,0-.61-.34,1.68,1.68,0,0,0-.29.32c-.28.38-.34.29.58.85l3,1.78,1,.63,1.73,1.05,1.63,1c.35.2,1,.61,1.5.9l1.44.87,1.07.64L57.59,31c.9.53,1.79,1.07,2,1.19L61,33l1.48.89,1.21.73.85.52a2.14,2.14,0,0,1-.41.52c-.46.51-1.07,1.26-1.38,1.69a.78.78,0,0,1-.24.25A3.86,3.86,0,0,1,62,37.5L60.23,37l-1.72-.49L56.72,36l-1.79-.51L53.2,35l-1.72-.49L49.75,34c-.7-.2-1.48-.42-1.72-.5L46.3,33l-1.72-.5-1.53-.43-1.52-.44-3.65-1.05-1.73-.5-1.79-.51-1.47-.43a.28.28,0,0,0-.14,0l-.13.35-.15.38s.19.11,2.77.85l1.72.49,1.73.5,1.72.5,1.73.49,1.72.5,1.72.49,1.73.5,1.79.51,1.79.52,1.73.5,2,.58,1.21.35,1.72.49,1.73.5,1.57.45L62,38.4l-.3.52a15.68,15.68,0,0,0-1.84,4.67,2.37,2.37,0,0,1-.08.32c0,.05,0,.07.11.09s1.8,0,2.86-.09c.87-.06,2.69-.25,3.53-.38,1.53-.24,2-.32,2.54-.42l.73-.14c.45-.08,2.51-.53,3.21-.7s2-.51,2.37-.64c.89-.29,1.43-.48,1.82-.64a46.71,46.71,0,0,0,4.79-2.3c3-1.61,4.26-2.09,6.2-2.41a8.61,8.61,0,0,1,1.77-.09,11.11,11.11,0,0,1,2.75.24,12.07,12.07,0,0,1,3,1c.61.35,1,.69.94.83a2.37,2.37,0,0,1-.58.26,7.5,7.5,0,0,0-2.56,1.35,1.11,1.11,0,0,0-.38,1.34C93.22,42,94.2,42.56,96,43a18.49,18.49,0,0,0,2,.33l.56.08.67.07,1.12.1a87.77,87.77,0,0,0,12.47.12l1-.07,0-.2a5.7,5.7,0,0,0-.19-.73c-.08-.3-.17-.6-.18-.66a17.91,17.91,0,0,0-1.17-2.65c-.35-.64-.38-.58.26-.68l1.75-.29.83-.15.81-.14.92-.15,1.61-.28.83-.14.8-.14.92-.16,1.3-.22,1.17-.2.78-.13.92-.16.83-.14c.4-.08,1.09-.2,1.61-.28l.81-.14,1.25-.22,1.28-.21,1.27-.22,2.89-.5,1.28-.22,2.89-.49,1.25-.22,1.64-.28,1.28-.22.71-.12a1.78,1.78,0,0,0,.33-.07,3.18,3.18,0,0,0-.13-.79,6.41,6.41,0,0,0-1,.15l-.91.16-.83.14-1.62.28-.8.14-.92.15c-.28,0-.65.12-.83.14-.4.08-1,.18-2.06.36l-2.89.5-1.28.21-2.89.5-1.25.21-1.64.29-1.29.22-.79.13-.78.14-1.3.22-1.3.22-.78.14-.79.13-1.3.22-1.3.23-.78.13-.79.14-1.29.22-1.4.24s-.13-.09-.22-.23a21.37,21.37,0,0,0-2-2.49,3.25,3.25,0,0,1-.34-.38l5.52-2.48,4.12-1.84,4.12-1.85,4.12-1.84,3.7-1.65,2.19-1a2.76,2.76,0,0,0-.46-.76,1.45,1.45,0,0,0-.3.11L128.8,25l-4.39,2-4,1.8-3.95,1.77-4.34,1.94L108.71,34l-.5.21a5.44,5.44,0,0,1-.67-.54c-.35-.29-.8-.66-1-.81a2.51,2.51,0,0,1-.38-.32s.49-.45,3.41-2.93l3.67-3.14,2.51-2.14c.68-.57,1.54-1.3,1.9-1.62l4.28-3.65,1.88-1.61,1.89-1.61,7-6,.89-.77a1.47,1.47,0,0,0-.3-.33L133,8.51l-.33.28-1.54,1.31-2.46,2.1-2.53,2.16-7.39,6.3-3.14,2.68-1.84,1.57L111.28,27l-3,2.6-2.36,2-.51.44-.27-.19A29.37,29.37,0,0,0,102,30.06l-.66-.34.42-.45,1.9-2.12L106.53,24c7.07-7.86,15.08-16.69,16.28-18l.41-.46-.32-.3c-.24-.2-.34-.27-.38-.23S119,8.8,112.6,15.92l-8.82,9.78-2.47,2.76c-.4.43-.74.81-.77.82a1.19,1.19,0,0,1-.48-.14c-1-.42-2.48-1-2.9-1.07L97,28l.46-.67c.24-.36.58-.86.75-1.09s.46-.68.67-1l.62-.91c.15-.2.37-.53.5-.71s.38-.56.56-.83l1.22-1.77,1.11-1.61c.13-.18.41-.59.62-.91l.63-.91.88-1.28c.13-.2.28-.41.33-.48l.29-.43c.1-.16.26-.38.34-.49l.92-1.33,1.63-2.38c.48-.68,1-1.37,1-1.52s.36-.53.57-.83.37-.56.37-.58a4.68,4.68,0,0,0-.72-.41c-.06,0-.11,0-.17.12s-.14.21-.19.29L104.2,16c-.17.27-.46.67-.62.92s-.39.56-.49.71L100.77,21l-2.32,3.37-.73,1.07L96.64,27l-.54.78-.49-.13c-.79-.21-.9-.24-1.73-.41a12.07,12.07,0,0,0-1.44-.28c-.26,0-.26,0,.09-1.33,0-.17.17-.6.25-1s.2-.79.25-1c.11-.4.18-.68.31-1.19,0-.21.12-.49.16-.62s.15-.56.24-.95.21-.82.25-1,.15-.56.25-.95.21-.82.24-.95.14-.53.23-.88.19-.77.24-1,.16-.6.25-.95l.2-.77c0-.08.09-.36.16-.62s.16-.63.2-.81c.15-.55.21-.78.4-1.53.1-.39.21-.82.25-1s.14-.56.25-.95.21-.82.24-.95.11-.41.16-.62c.13-.53.21-.8.31-1.19,0-.18.16-.62.25-1,.34-1.34.48-1.89.56-2.19l.25-1c.09-.35.17-.71.2-.79a.34.34,0,0,0,0-.17,6.08,6.08,0,0,0-.8-.13C97.75,1.71,97.73,1.73,97.7,1.85Z"/><path d="M62.79,49.29c-.47.14-.43.06-.47,1.06,0,.48,0,3.21,0,6.07,0,4.65,0,9.54-.12,12.39l0,1,.23.11a2.38,2.38,0,0,0,1,.17,7.1,7.1,0,0,0,1.78,0c.1,0,.1,0,.1-1.07,0-1.8.09-5.65.14-6.11a3.41,3.41,0,0,1,.22-1.1.57.57,0,0,1,.27-.06h5.73l.07.09a1.67,1.67,0,0,1,.12.23,15.81,15.81,0,0,1,.08,2.64c0,.5-.06,1.87-.08,3,0,2,0,2.13,0,2.27a.34.34,0,0,0,.28.18,9.06,9.06,0,0,0,1.75.13h.75l.16-.15.15-.14V66.18c0-2.12,0-6.68,0-10.14,0-6,0-6.29,0-6.45a.65.65,0,0,0-.19-.23,4.66,4.66,0,0,0-1.51-.12,2.64,2.64,0,0,0-1.16.19c-.16.08-.19.11-.22.27s0,1.2,0,2.45c0,3.43,0,6.1,0,6.13a5.06,5.06,0,0,1-.56.08,18.45,18.45,0,0,1-2.76,0l-1.82-.05a7.37,7.37,0,0,1-1.15-.07l-.18-.06v-.75c0-.42,0-2.35.09-4.3l.07-3.53-.11-.15-.11-.16-.62,0A7.32,7.32,0,0,0,62.79,49.29Z"/><path d="M80.55,49.3a4.92,4.92,0,0,0-.65.08,3.79,3.79,0,0,1-.7,0c-.48,0-.5,0-.64.1l-.15.11,0,.75c-.11,2.35-.22,17.58-.13,18.74.07.85.08.87.56.94a9.36,9.36,0,0,0,2.31,0,4.21,4.21,0,0,1,.81-.07,80.44,80.44,0,0,0,9.32-.09c.06,0,.08-.1.1-.74.06-1.42,0-2-.1-2.11s-1.18,0-4-.07a49.89,49.89,0,0,1-5.78-.14c-.13-.1-.19-.68-.19-2a13.45,13.45,0,0,1,.3-3.45l0-.12H82.7c2.66,0,4.29-.18,4.44-.48a8.55,8.55,0,0,0,0-1.77c-.06-.8-.14-1.11-.31-1.18a16.9,16.9,0,0,0-2.65,0,9.2,9.2,0,0,1-2,0,4.26,4.26,0,0,1-.54-.15l-.25-.1,0-.89c-.08-2.24,0-3.6.33-4,.09-.12.36-.2.8-.23.85-.05,4.36,0,7.35.09l.83,0,.15-.27L91,52V51.1A3.14,3.14,0,0,0,90.94,50a.94.94,0,0,0-.46-.56c-.17-.09-.18-.09-3.44-.09-1.79,0-3.8,0-4.45,0A16.34,16.34,0,0,0,80.55,49.3Z"/><path d="M128.12,49.32a3.58,3.58,0,0,0-1.24.25,6.4,6.4,0,0,0,.91,1.89c.6.94.93,1.47,1.13,1.8l.45.76c.14.23.38.64.55.91.45.76,2.84,5,3.05,5.42l.18.36v4.18c0,2.65,0,4.3,0,4.51.06.42.14.59.28.62s.75,0,1.54,0c1.42,0,1.43,0,1.74-.09l.31-.1,0-.49c0-.28,0-1.83,0-3.45,0-3.47,0-4.67,0-4.8a13.54,13.54,0,0,1,1.2-2.31c.17-.24.61-1,1.08-1.76l.36-.59.38-.64.83-1.37c.22-.33.64-1.05,1.22-2.06.25-.45.59-1,.75-1.21a4.35,4.35,0,0,0,.68-1.18c0-.23-.35-.43-1-.55a8.4,8.4,0,0,0-1.42-.1l-1,0-.25.19a1,1,0,0,0-.32.37,15,15,0,0,1-.78,1.33l-.45.76c-.53.87-1.39,2.24-1.51,2.42s-.58,1-.82,1.48-.42.8-.47.8S135,56.09,134.3,55c-.24-.37-.44-.69-.46-.71s-.6-1-.78-1.39c-.37-.71-1.75-3.15-1.85-3.27a1.18,1.18,0,0,0-.25-.19A8.83,8.83,0,0,0,128.12,49.32Z"/><path d="M109.55,49.34c-.33.18-.47,2-.21,2.81l0,.16h1.19a16.87,16.87,0,0,1,4.24.36c.09,0,.1.08.13.49.06,1,0,8.63-.11,11,0,.6-.06,1.7-.09,2.45a10.35,10.35,0,0,0,.13,3l.1.26,1.75,0c1.77,0,2,0,2.11-.09s.06-1.19.09-6.2c0-3.37,0-6.6.08-7.16s.06-1.6.07-2.29c0-1.14,0-1.27.11-1.38s.21-.23,2.4-.27l2.54-.05h.53l.1-.19c.09-.18.1-.23.09-1.36a9.22,9.22,0,0,0,0-1.28c-.1-.29-.63-.31-5.74-.28l-4.55,0c-.57,0-3.74,0-4.39-.07A2,2,0,0,0,109.55,49.34Z"/><path d="M98.65,49.36c-.12,0-1.77.11-3.16.13l-1.54,0,0,.95c-.06,1.92,0,8.05,0,11.08.06,2.59.07,4.72,0,7.34,0,.71,0,.86.19.92a14.12,14.12,0,0,0,2.22,0,2.54,2.54,0,0,0,.9-.23c.08-.07.07-.65,0-3.92,0-1-.07-2.3-.08-3V61.49l.29-.12a1.18,1.18,0,0,1,.73-.13,2.8,2.8,0,0,1,1.6.41,10.25,10.25,0,0,1,.86,1.39c.73,1.28,1.75,3.06,2,3.53.08.13.46.8.84,1.49.92,1.65,1.07,1.88,1.25,2a13.58,13.58,0,0,0,2.62,0c.53-.1.61-.14.6-.29a25.56,25.56,0,0,0-2.1-3.43l-.69-1.13c-.17-.31-.42-.73-.55-.94a5.2,5.2,0,0,1-.34-.58c-.13-.26-.74-1.31-.89-1.52a.79.79,0,0,1,.17-1c.21-.1,1.51-.87,1.88-1.1a8.22,8.22,0,0,0,1.81-1.71,2.64,2.64,0,0,0,.53-2,14.49,14.49,0,0,0-.26-2.63,2.33,2.33,0,0,0-.28-.94c-.1-.17-.26-.42-.35-.54A9.7,9.7,0,0,0,105,50.34a7.6,7.6,0,0,0-1.75-.74,15.6,15.6,0,0,0-3.09-.25Zm3.6,2.91a3.19,3.19,0,0,1,2.07,1.92,5.74,5.74,0,0,1,0,2,3.19,3.19,0,0,1-.8,1.65c-.26.25-.37.3-1.09.47a8.74,8.74,0,0,1-2.86.3,8.51,8.51,0,0,1-2.32-.18c-.3-.09-.28.06-.31-3.07l0-2.84.23-.21.23-.21,2.32,0C102,52.18,102,52.18,102.25,52.27Z"/><path d="M50.1,49.87a26.37,26.37,0,0,0-1,2.5c-.09.26-.2.58-.25.7s-.12.36-.17.53l-.16.48-.22.63c-.09.26-.2.58-.25.7s-.15.43-.25.69-.22.64-.29.83l-.33,1c-.22.61-.48,1.36-.9,2.53-.14.37-.35,1-.49,1.39-.47,1.3-.8,2.22-.84,2.28s-.08.18-.13.34-.36,1-.49,1.27-.63,1.68-.87,2.38c-.36,1-.5,1.42-.59,1.74a.53.53,0,0,0,0,.3s.73,0,1.57.06l1.53,0,.09-.14a1.49,1.49,0,0,0,.13-.25c0-.06.1-.21.15-.33.12-.29.55-1.41.88-2.32a13.54,13.54,0,0,1,.55-1.46s.71,0,1.55,0L53,65.8l2.21,0,.08.14a2.27,2.27,0,0,1,.18.5c.05.2.16.51.23.7s.17.47.22.63c.26.76.38,1.1.45,1.25l.3.59a1.41,1.41,0,0,0,.3.47,17.64,17.64,0,0,0,2.51-.06c.7,0,.94,0,.95-.1a8.5,8.5,0,0,0-.72-2.37c-.06-.15-.16-.41-.21-.57l-.14-.46c0-.09-.24-.65-.47-1.25-.44-1.14-.83-2.18-1.11-3-.18-.5-.37-1-.84-2.26-.37-1-.93-2.49-1.13-3.1-.35-1-.63-1.77-1.06-2.89-.12-.29-.36-.95-.55-1.47-.56-1.54-1-2.72-1.1-2.89L53,49.58H52.6l-1.36,0-1,0Zm1.61,5.81c.08.21.17.43.21.5S52.56,58,53,59.27c.05.18.12.41.16.52l.13.44c0,.13.19.55.33.93s.3.83.34,1,.07.29,0,.36-.47.15-1.27.18-3.45,0-3.59-.11-.11-.06-.08-.17.13-.44.24-.84c.23-.8.27-1,.48-1.6l.18-.58c.06-.23,1.25-3.35,1.48-3.89.05-.12.11-.21.14-.2A1.54,1.54,0,0,1,51.71,55.68Z"/><path d="M40.12,49.7l-3.58.07c-.71,0-1.28,0-2.13,0a11,11,0,0,0-2.58,0c-.14,0-.22.1-.24.16a5.27,5.27,0,0,0-.09.7c-.05.49-.07,1.92-.08,6.94,0,9.75,0,12.66.11,12.76s.74,0,1.61,0l1.58,0,.15-.12.15-.11.09-3c0-1.63.09-3.56.11-4.29l0-1.33.53,0c.94,0,2.92-.1,3.89-.11s1,0,1-.09.17-.51.17-1.48c0-1.28-.08-1.66-.33-1.74,0,0-1.23,0-2.61,0-2.45,0-2.52,0-2.62-.07L35.17,58V56.53c0-.8,0-1.9,0-2.44l0-1,.15-.13.15-.14.81,0c.85,0,3.55,0,5.22,0,2.62.11,2.82.1,3-.12a4.34,4.34,0,0,0,.15-1.93c0-1.2,0-1.1-1.13-1.11Z"/></svg>