<svg id="svg" version="1.1" xmlns="http://www.w3.org/2000/svg" xmlns:xlink="http://www.w3.org/1999/xlink" width="400" height="112.15403128760529" viewBox="0, 0, 400,112.15403128760529"><g id="svgg"><path id="path0" d="M31.560 1.417 C 31.487 1.607,31.175 1.667,30.244 1.667 C 29.382 1.667,28.951 1.740,28.774 1.917 C 28.617 2.073,28.208 2.167,27.679 2.167 C 27.038 2.167,26.833 2.227,26.833 2.417 C 26.833 2.602,26.639 2.667,26.083 2.667 C 25.528 2.667,25.333 2.731,25.333 2.917 C 25.333 3.090,25.160 3.167,24.770 3.167 C 24.461 3.167,24.114 3.279,24.000 3.417 C 23.886 3.554,23.577 3.667,23.313 3.667 C 22.998 3.667,22.833 3.752,22.833 3.917 C 22.833 4.090,22.659 4.167,22.260 4.167 C 21.944 4.167,21.644 4.236,21.591 4.321 C 21.539 4.405,21.272 4.524,20.998 4.584 C 20.724 4.644,20.500 4.762,20.500 4.847 C 20.500 4.931,20.355 5.000,20.179 5.000 C 20.002 5.000,19.745 5.113,19.607 5.250 C 19.470 5.388,19.248 5.500,19.116 5.500 C 18.983 5.500,18.781 5.612,18.667 5.750 C 18.553 5.888,18.356 6.000,18.230 6.000 C 18.103 6.000,18.000 6.112,18.000 6.250 C 18.000 6.406,17.843 6.500,17.583 6.500 C 17.324 6.500,17.167 6.594,17.167 6.750 C 17.167 6.888,17.063 7.000,16.937 7.000 C 16.811 7.000,16.614 7.113,16.500 7.250 C 16.386 7.388,16.152 7.500,15.980 7.500 C 15.807 7.500,15.667 7.612,15.667 7.750 C 15.667 7.888,15.554 8.000,15.417 8.000 C 15.279 8.000,15.167 8.069,15.167 8.153 C 15.167 8.237,14.885 8.478,14.542 8.688 C 14.198 8.897,13.892 9.129,13.861 9.201 C 13.831 9.274,13.699 9.333,13.569 9.333 C 13.440 9.333,13.333 9.446,13.333 9.583 C 13.333 9.721,13.221 9.833,13.083 9.833 C 12.946 9.833,12.833 9.946,12.833 10.083 C 12.833 10.221,12.721 10.333,12.583 10.333 C 12.446 10.333,12.333 10.446,12.333 10.583 C 12.333 10.721,12.221 10.833,12.083 10.833 C 11.946 10.833,11.833 10.946,11.833 11.083 C 11.833 11.221,11.721 11.333,11.583 11.333 C 11.446 11.333,11.333 11.446,11.333 11.583 C 11.333 11.721,11.230 11.833,11.103 11.833 C 10.976 11.833,10.823 11.965,10.762 12.125 C 10.521 12.765,10.244 13.167,10.044 13.167 C 9.928 13.167,9.833 13.238,9.833 13.325 C 9.833 13.412,9.644 13.687,9.413 13.937 C 9.181 14.186,8.948 14.565,8.895 14.779 C 8.841 14.992,8.730 15.167,8.649 15.167 C 8.567 15.167,8.500 15.271,8.500 15.399 C 8.500 15.527,8.387 15.674,8.250 15.727 C 8.112 15.780,8.000 16.013,8.000 16.245 C 8.000 16.509,7.906 16.667,7.750 16.667 C 7.594 16.667,7.500 16.824,7.500 17.083 C 7.500 17.343,7.406 17.500,7.250 17.500 C 7.083 17.500,7.000 17.667,7.000 18.000 C 7.000 18.333,6.917 18.500,6.750 18.500 C 6.583 18.500,6.500 18.667,6.500 19.000 C 6.500 19.333,6.417 19.500,6.250 19.500 C 6.090 19.500,5.998 19.664,5.995 19.958 C 5.992 20.210,5.879 20.562,5.745 20.740 C 5.610 20.918,5.500 21.205,5.500 21.377 C 5.500 21.549,5.387 21.803,5.250 21.940 C 5.112 22.078,5.000 22.441,5.000 22.748 C 5.000 23.055,4.914 23.334,4.808 23.370 C 4.703 23.405,4.581 23.861,4.537 24.383 C 4.494 24.906,4.393 25.333,4.313 25.333 C 4.232 25.333,4.167 25.748,4.167 26.255 C 4.167 26.921,4.097 27.204,3.917 27.273 C 3.719 27.349,3.667 27.695,3.667 28.917 C 3.667 30.139,3.614 30.485,3.417 30.560 C 3.036 30.706,3.036 82.627,3.417 82.773 C 3.608 82.846,3.667 83.160,3.667 84.101 C 3.667 85.085,3.717 85.333,3.917 85.333 C 4.108 85.333,4.167 85.545,4.167 86.240 C 4.167 86.739,4.232 87.187,4.312 87.237 C 4.392 87.286,4.495 87.719,4.541 88.198 C 4.587 88.677,4.709 89.097,4.812 89.132 C 4.915 89.166,5.000 89.408,5.000 89.669 C 5.000 89.929,5.112 90.255,5.250 90.393 C 5.387 90.530,5.500 90.836,5.500 91.071 C 5.500 91.341,5.593 91.500,5.750 91.500 C 5.924 91.500,6.000 91.675,6.000 92.071 C 6.000 92.386,6.113 92.755,6.250 92.893 C 6.388 93.030,6.500 93.301,6.500 93.493 C 6.500 93.686,6.612 93.887,6.750 93.940 C 6.887 93.992,7.000 94.180,7.000 94.356 C 7.000 94.533,7.112 94.720,7.250 94.773 C 7.387 94.826,7.500 94.973,7.500 95.101 C 7.500 95.229,7.612 95.333,7.750 95.333 C 7.917 95.333,8.000 95.500,8.000 95.833 C 8.000 96.167,8.083 96.333,8.250 96.333 C 8.392 96.333,8.500 96.483,8.500 96.679 C 8.500 96.868,8.594 97.128,8.708 97.256 C 9.203 97.808,9.333 97.996,9.333 98.160 C 9.333 98.255,9.446 98.333,9.583 98.333 C 9.724 98.333,9.833 98.482,9.833 98.672 C 9.833 98.858,9.946 99.054,10.083 99.106 C 10.221 99.159,10.333 99.307,10.333 99.434 C 10.333 99.562,10.446 99.667,10.583 99.667 C 10.721 99.667,10.833 99.779,10.833 99.917 C 10.833 100.054,10.946 100.167,11.083 100.167 C 11.221 100.167,11.333 100.279,11.333 100.417 C 11.333 100.554,11.446 100.667,11.583 100.667 C 11.721 100.667,11.833 100.779,11.833 100.917 C 11.833 101.054,11.946 101.167,12.083 101.167 C 12.221 101.167,12.333 101.279,12.333 101.417 C 12.333 101.554,12.446 101.667,12.583 101.667 C 12.721 101.667,12.833 101.753,12.833 101.858 C 12.833 102.151,14.319 103.490,14.769 103.603 C 14.988 103.658,15.167 103.770,15.167 103.851 C 15.167 103.933,15.279 104.000,15.417 104.000 C 15.554 104.000,15.667 104.112,15.667 104.250 C 15.667 104.388,15.771 104.500,15.899 104.500 C 16.027 104.500,16.174 104.612,16.227 104.750 C 16.280 104.888,16.513 105.000,16.745 105.000 C 17.009 105.000,17.167 105.094,17.167 105.250 C 17.167 105.406,17.324 105.500,17.583 105.500 C 17.843 105.500,18.000 105.594,18.000 105.750 C 18.000 105.888,18.103 106.000,18.230 106.000 C 18.356 106.000,18.553 106.113,18.667 106.250 C 18.781 106.388,18.983 106.500,19.116 106.500 C 19.248 106.500,19.470 106.613,19.607 106.750 C 19.745 106.888,20.002 107.000,20.179 107.000 C 20.355 107.000,20.500 107.074,20.500 107.165 C 20.500 107.255,20.800 107.377,21.167 107.436 C 21.533 107.495,21.833 107.608,21.833 107.688 C 21.833 107.768,22.058 107.833,22.333 107.833 C 22.667 107.833,22.833 107.917,22.833 108.083 C 22.833 108.269,23.028 108.333,23.583 108.333 C 24.139 108.333,24.333 108.398,24.333 108.583 C 24.333 108.769,24.528 108.833,25.083 108.833 C 25.639 108.833,25.833 108.898,25.833 109.083 C 25.833 109.275,26.046 109.333,26.750 109.333 C 27.454 109.333,27.667 109.391,27.667 109.583 C 27.667 109.777,27.887 109.833,28.649 109.833 C 29.368 109.833,29.657 109.900,29.727 110.083 C 29.802 110.280,30.144 110.333,31.333 110.333 C 32.522 110.333,32.864 110.387,32.940 110.583 C 33.084 110.960,45.350 110.960,45.726 110.583 C 45.909 110.401,46.354 110.333,47.373 110.333 C 48.343 110.333,48.868 110.259,49.093 110.089 C 49.280 109.947,49.789 109.842,50.297 109.839 C 50.922 109.835,51.205 109.761,51.273 109.583 C 51.342 109.404,51.623 109.333,52.268 109.333 C 52.956 109.333,53.167 109.275,53.167 109.083 C 53.167 108.902,53.352 108.833,53.839 108.833 C 54.282 108.833,54.543 108.748,54.606 108.583 C 54.669 108.420,54.928 108.333,55.351 108.333 C 55.817 108.333,56.000 108.263,56.000 108.083 C 56.000 107.917,56.167 107.833,56.500 107.833 C 56.775 107.833,57.000 107.758,57.000 107.667 C 57.000 107.575,57.190 107.500,57.422 107.500 C 57.654 107.500,57.887 107.388,57.940 107.250 C 57.994 107.107,58.243 107.000,58.518 107.000 C 58.835 107.000,59.000 106.915,59.000 106.750 C 59.000 106.594,59.158 106.500,59.422 106.500 C 59.654 106.500,59.887 106.387,59.940 106.250 C 59.992 106.112,60.215 106.000,60.434 106.000 C 60.678 106.000,60.833 105.903,60.833 105.750 C 60.833 105.612,60.974 105.500,61.146 105.500 C 61.318 105.500,61.553 105.387,61.667 105.250 C 61.781 105.112,61.977 105.000,62.104 105.000 C 62.230 105.000,62.333 104.896,62.333 104.768 C 62.333 104.641,62.521 104.489,62.750 104.432 C 62.979 104.374,63.167 104.253,63.167 104.163 C 63.167 104.074,63.266 104.000,63.387 104.000 C 63.671 104.000,64.667 103.113,64.667 102.860 C 64.667 102.754,64.779 102.667,64.917 102.667 C 65.054 102.667,65.167 102.594,65.167 102.504 C 65.167 102.415,65.406 102.218,65.700 102.066 C 66.369 101.720,67.484 100.538,67.609 100.042 C 67.660 99.835,67.775 99.667,67.864 99.667 C 68.074 99.667,69.000 98.741,69.000 98.531 C 69.000 98.442,69.112 98.326,69.250 98.273 C 69.387 98.220,69.500 97.987,69.500 97.755 C 69.500 97.491,69.594 97.333,69.750 97.333 C 69.887 97.333,70.000 97.221,70.000 97.083 C 70.000 96.946,70.112 96.833,70.250 96.833 C 70.417 96.833,70.500 96.667,70.500 96.333 C 70.500 96.000,70.583 95.833,70.750 95.833 C 70.887 95.833,71.000 95.721,71.000 95.583 C 71.000 95.446,71.074 95.333,71.163 95.333 C 71.253 95.333,71.373 95.149,71.430 94.924 C 71.486 94.698,71.638 94.426,71.766 94.320 C 71.895 94.213,72.000 93.985,72.000 93.813 C 72.000 93.641,72.074 93.500,72.163 93.500 C 72.253 93.500,72.377 93.294,72.438 93.042 C 72.500 92.790,72.651 92.435,72.775 92.255 C 72.899 92.074,73.000 91.759,73.000 91.556 C 73.000 91.353,73.075 91.140,73.167 91.083 C 73.258 91.027,73.333 90.768,73.333 90.508 C 73.333 90.242,73.442 89.994,73.583 89.940 C 73.742 89.879,73.833 89.623,73.833 89.243 C 73.833 88.913,73.946 88.530,74.083 88.393 C 74.230 88.246,74.333 87.839,74.333 87.405 C 74.333 86.860,74.399 86.667,74.583 86.667 C 74.782 86.667,74.833 86.426,74.833 85.500 C 74.833 84.574,74.885 84.333,75.083 84.333 C 75.286 84.333,75.333 84.067,75.333 82.937 C 75.333 81.899,75.398 81.488,75.583 81.333 C 75.803 81.151,75.833 78.964,75.833 63.497 C 75.833 47.981,75.863 45.858,76.083 45.773 C 76.460 45.628,76.460 34.538,76.083 34.394 C 75.876 34.314,75.833 33.859,75.833 31.732 C 75.833 29.563,75.795 29.167,75.583 29.167 C 75.382 29.167,75.333 28.910,75.333 27.854 C 75.333 26.890,75.267 26.486,75.083 26.333 C 74.918 26.196,74.833 25.823,74.833 25.230 C 74.833 24.544,74.775 24.333,74.583 24.333 C 74.398 24.333,74.333 24.139,74.333 23.583 C 74.333 23.028,74.269 22.833,74.083 22.833 C 73.902 22.833,73.833 22.648,73.833 22.161 C 73.833 21.718,73.748 21.457,73.583 21.394 C 73.430 21.335,73.333 21.082,73.333 20.742 C 73.333 20.436,73.264 20.144,73.179 20.091 C 73.095 20.039,72.976 19.772,72.916 19.498 C 72.856 19.224,72.738 19.000,72.653 19.000 C 72.569 19.000,72.500 18.810,72.500 18.578 C 72.500 18.346,72.387 18.113,72.250 18.060 C 72.112 18.008,72.000 17.785,72.000 17.566 C 72.000 17.346,71.921 17.167,71.825 17.167 C 71.728 17.167,71.571 16.942,71.475 16.667 C 71.379 16.392,71.233 16.167,71.150 16.167 C 71.068 16.167,71.000 16.054,71.000 15.917 C 71.000 15.779,70.887 15.667,70.750 15.667 C 70.583 15.667,70.500 15.500,70.500 15.167 C 70.500 14.833,70.417 14.667,70.250 14.667 C 70.112 14.667,70.000 14.554,70.000 14.417 C 70.000 14.279,69.887 14.167,69.750 14.167 C 69.610 14.167,69.500 14.018,69.500 13.828 C 69.500 13.642,69.387 13.446,69.250 13.394 C 69.112 13.341,69.000 13.221,69.000 13.126 C 69.000 13.032,68.813 12.781,68.583 12.569 C 68.354 12.356,68.167 12.104,68.167 12.008 C 68.167 11.912,68.054 11.833,67.917 11.833 C 67.779 11.833,67.667 11.721,67.667 11.583 C 67.667 11.446,67.554 11.333,67.417 11.333 C 67.279 11.333,67.167 11.221,67.167 11.083 C 67.167 10.946,67.054 10.833,66.917 10.833 C 66.779 10.833,66.667 10.721,66.667 10.583 C 66.667 10.446,66.554 10.333,66.417 10.333 C 66.279 10.333,66.167 10.221,66.167 10.083 C 66.167 9.946,66.054 9.833,65.917 9.833 C 65.779 9.833,65.667 9.721,65.667 9.583 C 65.667 9.446,65.554 9.333,65.417 9.333 C 65.279 9.333,65.167 9.221,65.167 9.083 C 65.167 8.946,65.054 8.833,64.917 8.833 C 64.779 8.833,64.667 8.758,64.667 8.667 C 64.667 8.575,64.562 8.500,64.434 8.500 C 64.307 8.500,64.159 8.387,64.106 8.250 C 64.054 8.112,63.858 8.000,63.672 8.000 C 63.482 8.000,63.333 7.890,63.333 7.750 C 63.333 7.612,63.221 7.500,63.083 7.500 C 62.946 7.500,62.833 7.388,62.833 7.250 C 62.833 7.083,62.667 7.000,62.333 7.000 C 62.000 7.000,61.833 6.917,61.833 6.750 C 61.833 6.612,61.729 6.500,61.601 6.500 C 61.473 6.500,61.326 6.387,61.273 6.250 C 61.220 6.112,60.987 6.000,60.755 6.000 C 60.491 6.000,60.333 5.906,60.333 5.750 C 60.333 5.597,60.178 5.500,59.934 5.500 C 59.715 5.500,59.492 5.387,59.440 5.250 C 59.387 5.112,59.162 5.000,58.940 5.000 C 58.717 5.000,58.492 4.887,58.440 4.750 C 58.387 4.612,58.154 4.500,57.922 4.500 C 57.690 4.500,57.500 4.425,57.500 4.333 C 57.500 4.242,57.163 4.167,56.750 4.167 C 56.194 4.167,56.000 4.102,56.000 3.917 C 56.000 3.750,55.833 3.667,55.500 3.667 C 55.167 3.667,55.000 3.583,55.000 3.417 C 55.000 3.232,54.808 3.167,54.268 3.167 C 53.771 3.167,53.505 3.086,53.440 2.917 C 53.372 2.740,53.097 2.667,52.505 2.667 C 51.871 2.667,51.667 2.606,51.667 2.417 C 51.667 2.225,51.456 2.167,50.770 2.167 C 50.177 2.167,49.804 2.082,49.667 1.917 C 49.515 1.734,49.112 1.667,48.164 1.667 C 47.167 1.667,46.847 1.609,46.773 1.417 C 46.690 1.200,45.689 1.167,39.167 1.167 C 32.644 1.167,31.644 1.200,31.560 1.417 M260.227 1.917 C 260.149 2.119,259.759 2.167,258.169 2.167 C 256.629 2.167,256.163 2.220,256.000 2.417 C 255.852 2.595,255.462 2.667,254.646 2.667 C 253.738 2.667,253.500 2.719,253.500 2.917 C 253.500 3.109,253.286 3.167,252.578 3.167 C 251.912 3.167,251.630 3.236,251.560 3.417 C 251.498 3.580,251.238 3.667,250.810 3.667 C 250.383 3.667,250.123 3.753,250.060 3.917 C 249.998 4.080,249.738 4.167,249.316 4.167 C 248.959 4.167,248.667 4.242,248.667 4.333 C 248.667 4.425,248.447 4.500,248.179 4.500 C 247.910 4.500,247.578 4.612,247.440 4.750 C 247.303 4.887,246.995 5.000,246.757 5.000 C 246.518 5.000,246.280 5.112,246.227 5.250 C 246.174 5.387,245.952 5.500,245.732 5.500 C 245.489 5.500,245.333 5.597,245.333 5.750 C 245.333 5.917,245.167 6.000,244.833 6.000 C 244.500 6.000,244.333 6.083,244.333 6.250 C 244.333 6.406,244.175 6.500,243.911 6.500 C 243.679 6.500,243.446 6.612,243.394 6.750 C 243.341 6.888,243.193 7.000,243.066 7.000 C 242.938 7.000,242.833 7.112,242.833 7.250 C 242.833 7.406,242.675 7.500,242.411 7.500 C 242.179 7.500,241.946 7.612,241.894 7.750 C 241.841 7.887,241.701 8.000,241.583 8.000 C 241.465 8.000,241.326 8.112,241.273 8.250 C 241.220 8.387,241.025 8.500,240.839 8.500 C 240.652 8.500,240.500 8.575,240.500 8.667 C 240.500 8.758,240.387 8.833,240.250 8.833 C 240.112 8.833,240.000 8.946,240.000 9.083 C 240.000 9.221,239.887 9.333,239.750 9.333 C 239.612 9.333,239.500 9.446,239.500 9.583 C 239.500 9.721,239.387 9.833,239.250 9.833 C 239.112 9.833,239.000 9.928,239.000 10.044 C 239.000 10.244,238.598 10.521,237.958 10.762 C 237.798 10.823,237.667 10.976,237.667 11.103 C 237.667 11.230,237.554 11.333,237.417 11.333 C 237.279 11.333,237.167 11.446,237.167 11.583 C 237.167 11.721,237.090 11.833,236.996 11.833 C 236.902 11.833,236.754 12.021,236.667 12.250 C 236.580 12.479,236.431 12.667,236.337 12.667 C 236.244 12.667,236.167 12.779,236.167 12.917 C 236.167 13.054,236.054 13.167,235.917 13.167 C 235.779 13.167,235.667 13.279,235.667 13.417 C 235.667 13.554,235.554 13.667,235.417 13.667 C 235.279 13.667,235.167 13.779,235.167 13.917 C 235.167 14.054,235.054 14.167,234.917 14.167 C 234.778 14.167,234.667 14.315,234.667 14.500 C 234.667 14.683,234.593 14.833,234.503 14.833 C 234.413 14.833,234.293 15.021,234.235 15.250 C 234.178 15.479,234.026 15.667,233.899 15.667 C 233.771 15.667,233.667 15.750,233.667 15.851 C 233.667 15.952,233.442 16.368,233.167 16.776 C 232.892 17.183,232.667 17.625,232.667 17.758 C 232.667 17.891,232.592 18.000,232.500 18.000 C 232.408 18.000,232.333 18.225,232.333 18.500 C 232.333 18.833,232.250 19.000,232.083 19.000 C 231.917 19.000,231.833 19.167,231.833 19.500 C 231.833 19.833,231.750 20.000,231.583 20.000 C 231.417 20.000,231.333 20.167,231.333 20.500 C 231.333 20.833,231.250 21.000,231.083 21.000 C 230.919 21.000,230.833 21.164,230.833 21.480 C 230.833 21.743,230.721 22.053,230.583 22.167 C 230.446 22.281,230.333 22.582,230.333 22.836 C 230.333 23.093,230.222 23.340,230.083 23.394 C 229.913 23.459,229.833 23.725,229.833 24.224 C 229.833 24.674,229.736 25.040,229.583 25.167 C 229.438 25.287,229.333 25.651,229.333 26.032 C 229.333 26.395,229.221 26.803,229.083 26.940 C 228.918 27.106,228.833 27.521,228.833 28.165 C 228.833 28.796,228.760 29.163,228.625 29.208 C 228.480 29.256,228.400 29.840,228.360 31.139 C 228.329 32.162,228.235 33.000,228.152 33.000 C 227.935 33.000,227.949 81.282,228.167 81.417 C 228.258 81.473,228.333 82.185,228.333 82.998 C 228.333 84.090,228.399 84.542,228.583 84.726 C 228.751 84.894,228.833 85.311,228.833 85.993 C 228.833 86.744,228.899 87.036,229.083 87.106 C 229.251 87.171,229.333 87.434,229.333 87.903 C 229.333 88.288,229.443 88.749,229.578 88.926 C 229.713 89.104,229.825 89.531,229.828 89.875 C 229.832 90.317,229.906 90.500,230.083 90.500 C 230.249 90.500,230.333 90.665,230.333 90.988 C 230.333 91.257,230.446 91.589,230.583 91.726 C 230.721 91.864,230.833 92.207,230.833 92.488 C 230.833 92.832,230.915 93.000,231.083 93.000 C 231.250 93.000,231.333 93.167,231.333 93.500 C 231.333 93.833,231.417 94.000,231.583 94.000 C 231.750 94.000,231.833 94.167,231.833 94.500 C 231.833 94.833,231.917 95.000,232.083 95.000 C 232.239 95.000,232.333 95.157,232.333 95.417 C 232.333 95.646,232.402 95.833,232.487 95.833 C 232.571 95.833,232.690 96.058,232.750 96.333 C 232.810 96.608,232.929 96.833,233.013 96.833 C 233.098 96.833,233.167 96.946,233.167 97.083 C 233.167 97.221,233.279 97.333,233.417 97.333 C 233.573 97.333,233.667 97.491,233.667 97.755 C 233.667 97.987,233.779 98.220,233.917 98.273 C 234.054 98.326,234.167 98.473,234.167 98.601 C 234.167 98.729,234.279 98.833,234.417 98.833 C 234.557 98.833,234.667 98.982,234.667 99.172 C 234.667 99.358,234.779 99.554,234.917 99.606 C 235.054 99.659,235.167 99.807,235.167 99.934 C 235.167 100.062,235.279 100.167,235.417 100.167 C 235.554 100.167,235.667 100.279,235.667 100.417 C 235.667 100.554,235.779 100.667,235.917 100.667 C 236.054 100.667,236.167 100.779,236.167 100.917 C 236.167 101.054,236.279 101.167,236.417 101.167 C 236.554 101.167,236.667 101.252,236.667 101.356 C 236.667 101.460,236.854 101.719,237.083 101.931 C 237.313 102.144,237.500 102.396,237.500 102.492 C 237.500 102.588,237.612 102.667,237.750 102.667 C 237.887 102.667,238.000 102.779,238.000 102.917 C 238.000 103.054,238.079 103.167,238.175 103.167 C 238.271 103.167,238.523 103.354,238.735 103.583 C 238.948 103.813,239.207 104.000,239.311 104.000 C 239.415 104.000,239.500 104.112,239.500 104.250 C 239.500 104.388,239.603 104.500,239.730 104.500 C 239.856 104.500,240.053 104.613,240.167 104.750 C 240.281 104.888,240.515 105.000,240.687 105.000 C 240.859 105.000,241.000 105.075,241.000 105.167 C 241.000 105.456,241.653 106.000,242.000 106.000 C 242.183 106.000,242.334 106.094,242.335 106.208 C 242.336 106.323,242.655 106.566,243.044 106.749 C 243.432 106.931,243.849 107.175,243.970 107.290 C 244.091 107.406,244.335 107.500,244.512 107.500 C 244.689 107.500,244.833 107.575,244.833 107.667 C 244.833 107.758,245.013 107.833,245.232 107.833 C 245.452 107.833,245.674 107.946,245.727 108.083 C 245.780 108.221,246.005 108.333,246.227 108.333 C 246.449 108.333,246.674 108.446,246.727 108.583 C 246.790 108.748,247.051 108.833,247.495 108.833 C 247.981 108.833,248.167 108.902,248.167 109.083 C 248.167 109.248,248.331 109.333,248.649 109.333 C 248.924 109.333,249.172 109.441,249.227 109.583 C 249.288 109.742,249.543 109.833,249.923 109.833 C 250.254 109.833,250.636 109.946,250.774 110.083 C 250.919 110.228,251.326 110.333,251.744 110.333 C 252.231 110.333,252.495 110.414,252.560 110.583 C 252.632 110.770,252.929 110.833,253.727 110.833 C 254.525 110.833,254.822 110.897,254.894 111.083 C 254.968 111.278,255.300 111.333,256.398 111.333 C 257.376 111.333,257.827 111.397,257.875 111.542 C 257.929 111.704,259.554 111.750,265.250 111.750 C 270.946 111.750,272.571 111.704,272.625 111.542 C 272.672 111.400,273.087 111.333,273.919 111.333 C 274.785 111.333,275.216 111.260,275.393 111.083 C 275.555 110.921,275.968 110.833,276.571 110.833 C 277.286 110.833,277.500 110.776,277.500 110.583 C 277.500 110.391,277.713 110.333,278.417 110.333 C 279.120 110.333,279.333 110.275,279.333 110.083 C 279.333 109.898,279.528 109.833,280.083 109.833 C 280.639 109.833,280.833 109.769,280.833 109.583 C 280.833 109.418,280.999 109.333,281.321 109.333 C 281.590 109.333,281.922 109.221,282.060 109.083 C 282.197 108.946,282.505 108.833,282.743 108.833 C 282.982 108.833,283.220 108.721,283.273 108.583 C 283.326 108.446,283.548 108.333,283.768 108.333 C 284.011 108.333,284.167 108.236,284.167 108.083 C 284.167 107.917,284.333 107.833,284.667 107.833 C 284.942 107.833,285.167 107.758,285.167 107.667 C 285.167 107.575,285.311 107.500,285.488 107.500 C 285.665 107.500,285.912 107.397,286.038 107.272 C 286.163 107.147,286.431 106.992,286.633 106.927 C 286.835 106.863,287.000 106.741,287.000 106.655 C 287.000 106.570,287.115 106.500,287.255 106.500 C 287.396 106.500,287.554 106.388,287.606 106.250 C 287.659 106.113,287.847 106.000,288.023 106.000 C 288.199 106.000,288.387 105.887,288.440 105.750 C 288.492 105.612,288.640 105.500,288.768 105.500 C 288.896 105.500,289.000 105.388,289.000 105.250 C 289.000 105.112,289.112 105.000,289.250 105.000 C 289.387 105.000,289.500 104.888,289.500 104.750 C 289.500 104.594,289.658 104.500,289.922 104.500 C 290.154 104.500,290.387 104.387,290.440 104.250 C 290.492 104.112,290.609 104.000,290.698 104.000 C 290.920 104.000,292.833 102.071,292.833 101.847 C 292.833 101.748,292.946 101.667,293.083 101.667 C 293.221 101.667,293.333 101.554,293.333 101.417 C 293.333 101.279,293.446 101.167,293.583 101.167 C 293.721 101.167,293.833 101.054,293.833 100.917 C 293.833 100.779,293.946 100.667,294.083 100.667 C 294.222 100.667,294.333 100.519,294.333 100.336 C 294.333 100.154,294.671 99.677,295.083 99.276 C 295.496 98.875,295.833 98.420,295.833 98.266 C 295.833 98.111,296.016 97.815,296.238 97.609 C 296.461 97.402,296.694 97.031,296.757 96.783 C 296.819 96.536,296.936 96.333,297.018 96.333 C 297.100 96.333,297.167 96.108,297.167 95.833 C 297.167 95.500,297.250 95.333,297.417 95.333 C 297.572 95.333,297.667 95.176,297.667 94.917 C 297.667 94.657,297.761 94.500,297.917 94.500 C 298.083 94.500,298.167 94.333,298.167 94.000 C 298.167 93.667,298.250 93.500,298.417 93.500 C 298.583 93.500,298.667 93.333,298.667 93.000 C 298.667 92.667,298.750 92.500,298.917 92.500 C 299.096 92.500,299.167 92.317,299.167 91.851 C 299.167 91.428,299.254 91.169,299.417 91.106 C 299.582 91.043,299.667 90.782,299.667 90.339 C 299.667 89.852,299.736 89.667,299.917 89.667 C 300.098 89.667,300.167 89.480,300.167 88.988 C 300.167 88.607,300.276 88.200,300.417 88.060 C 300.571 87.905,300.667 87.496,300.667 86.988 C 300.667 86.536,300.742 86.167,300.833 86.167 C 300.931 86.167,301.000 85.583,301.000 84.750 C 301.000 83.602,301.047 83.333,301.250 83.333 C 301.470 83.333,301.500 81.676,301.500 69.417 L 301.500 55.500 285.917 55.500 L 270.333 55.500 270.333 60.833 L 270.333 66.167 279.917 66.167 L 289.500 66.167 289.500 73.762 C 289.500 80.291,289.465 81.392,289.250 81.607 C 289.088 81.769,289.000 82.181,289.000 82.774 C 289.000 83.366,288.912 83.779,288.750 83.940 C 288.612 84.078,288.500 84.443,288.500 84.752 C 288.500 85.061,288.425 85.360,288.333 85.417 C 288.242 85.473,288.167 85.815,288.167 86.177 C 288.167 86.649,288.097 86.833,287.917 86.833 C 287.752 86.833,287.667 86.998,287.667 87.316 C 287.667 87.590,287.559 87.839,287.417 87.894 C 287.279 87.946,287.167 88.179,287.167 88.411 C 287.167 88.643,287.093 88.833,287.003 88.833 C 286.913 88.833,286.794 89.015,286.738 89.238 C 286.682 89.460,286.531 89.683,286.402 89.733 C 286.272 89.782,286.167 90.013,286.167 90.245 C 286.167 90.493,286.072 90.667,285.936 90.667 C 285.809 90.667,285.661 90.798,285.608 90.958 C 285.461 91.395,285.151 91.818,284.458 92.527 C 284.115 92.879,283.833 93.242,283.833 93.333 C 283.833 93.425,283.721 93.500,283.583 93.500 C 283.446 93.500,283.333 93.612,283.333 93.750 C 283.333 93.888,283.221 94.000,283.083 94.000 C 282.946 94.000,282.833 94.112,282.833 94.250 C 282.833 94.388,282.721 94.500,282.583 94.500 C 282.446 94.500,282.333 94.612,282.333 94.750 C 282.333 94.888,282.221 95.000,282.083 95.000 C 281.946 95.000,281.833 95.112,281.833 95.250 C 281.833 95.388,281.721 95.500,281.583 95.500 C 281.446 95.500,281.333 95.566,281.333 95.647 C 281.333 95.728,281.202 95.839,281.042 95.892 C 280.680 96.014,280.208 96.325,279.806 96.708 C 279.638 96.869,279.387 97.000,279.250 97.000 C 279.112 97.000,279.000 97.075,279.000 97.167 C 279.000 97.258,278.887 97.333,278.750 97.333 C 278.612 97.333,278.500 97.446,278.500 97.583 C 278.500 97.750,278.333 97.833,278.000 97.833 C 277.667 97.833,277.500 97.917,277.500 98.083 C 277.500 98.264,277.315 98.333,276.833 98.333 C 276.352 98.333,276.167 98.403,276.167 98.583 C 276.167 98.750,276.000 98.833,275.667 98.833 C 275.333 98.833,275.167 98.917,275.167 99.083 C 275.167 99.269,274.972 99.333,274.417 99.333 C 274.004 99.333,273.667 99.408,273.667 99.500 C 273.667 99.592,273.306 99.667,272.865 99.667 C 272.418 99.667,271.920 99.775,271.740 99.911 C 271.524 100.075,270.999 100.158,270.157 100.161 C 269.314 100.165,268.790 100.248,268.574 100.411 C 268.136 100.742,262.067 100.785,261.958 100.458 C 261.911 100.317,261.382 100.231,260.319 100.191 C 259.456 100.158,258.705 100.060,258.651 99.973 C 258.597 99.886,258.126 99.771,257.604 99.717 C 257.083 99.663,256.617 99.555,256.569 99.476 C 256.520 99.398,256.110 99.333,255.657 99.333 C 255.036 99.333,254.833 99.272,254.833 99.083 C 254.833 98.926,254.675 98.833,254.405 98.833 C 254.169 98.833,253.864 98.721,253.726 98.583 C 253.589 98.446,253.257 98.333,252.988 98.333 C 252.665 98.333,252.500 98.249,252.500 98.083 C 252.500 97.917,252.333 97.833,252.000 97.833 C 251.667 97.833,251.500 97.750,251.500 97.583 C 251.500 97.417,251.333 97.333,251.000 97.333 C 250.667 97.333,250.500 97.250,250.500 97.083 C 250.500 96.946,250.396 96.833,250.268 96.833 C 250.140 96.833,249.992 96.721,249.940 96.583 C 249.887 96.446,249.725 96.333,249.581 96.333 C 249.436 96.333,249.144 96.146,248.931 95.917 C 248.719 95.688,248.468 95.500,248.374 95.500 C 248.279 95.500,248.159 95.387,248.106 95.250 C 248.054 95.112,247.866 95.000,247.690 95.000 C 247.513 95.000,247.326 94.888,247.273 94.750 C 247.220 94.612,247.062 94.500,246.922 94.500 C 246.782 94.500,246.667 94.388,246.667 94.250 C 246.667 94.112,246.554 94.000,246.417 94.000 C 246.279 94.000,246.167 93.888,246.167 93.750 C 246.167 93.612,246.054 93.500,245.917 93.500 C 245.776 93.500,245.667 93.351,245.667 93.161 C 245.667 92.975,245.554 92.780,245.417 92.727 C 245.279 92.674,245.167 92.543,245.167 92.436 C 245.167 92.329,244.940 91.980,244.663 91.662 C 243.872 90.754,243.833 90.696,243.833 90.424 C 243.833 90.282,243.721 90.167,243.583 90.167 C 243.427 90.167,243.333 90.009,243.333 89.745 C 243.333 89.513,243.221 89.280,243.083 89.227 C 242.946 89.174,242.833 88.960,242.833 88.750 C 242.833 88.540,242.721 88.326,242.583 88.273 C 242.446 88.220,242.333 87.987,242.333 87.755 C 242.333 87.491,242.240 87.333,242.083 87.333 C 241.919 87.333,241.833 87.169,241.833 86.854 C 241.833 86.590,241.721 86.281,241.583 86.167 C 241.446 86.053,241.333 85.711,241.333 85.408 C 241.333 85.105,241.221 84.745,241.083 84.607 C 240.944 84.468,240.833 84.061,240.833 83.688 C 240.833 83.321,240.758 82.973,240.667 82.917 C 240.575 82.860,240.500 82.261,240.500 81.585 C 240.500 80.716,240.427 80.284,240.250 80.107 C 240.030 79.887,240.000 77.169,240.000 57.667 C 240.000 38.164,240.030 35.446,240.250 35.226 C 240.437 35.039,240.500 34.579,240.500 33.405 C 240.500 32.468,240.567 31.833,240.667 31.833 C 240.762 31.833,240.833 31.333,240.833 30.667 C 240.833 29.741,240.885 29.500,241.083 29.500 C 241.263 29.500,241.333 29.317,241.333 28.851 C 241.333 28.428,241.420 28.169,241.583 28.106 C 241.748 28.043,241.833 27.782,241.833 27.339 C 241.833 26.852,241.902 26.667,242.083 26.667 C 242.250 26.667,242.333 26.500,242.333 26.167 C 242.333 25.833,242.417 25.667,242.583 25.667 C 242.740 25.667,242.833 25.509,242.833 25.245 C 242.833 25.013,242.946 24.780,243.083 24.727 C 243.221 24.674,243.333 24.460,243.333 24.250 C 243.333 24.040,243.446 23.826,243.583 23.773 C 243.721 23.720,243.833 23.522,243.833 23.333 C 243.833 23.144,243.946 22.946,244.083 22.894 C 244.221 22.841,244.333 22.727,244.333 22.641 C 244.333 22.555,244.521 22.310,244.750 22.098 C 244.991 21.874,245.167 21.527,245.167 21.273 C 245.167 20.993,245.258 20.833,245.417 20.833 C 245.554 20.833,245.667 20.758,245.667 20.667 C 245.667 20.575,245.779 20.500,245.917 20.500 C 246.054 20.500,246.167 20.387,246.167 20.250 C 246.167 20.112,246.279 20.000,246.417 20.000 C 246.554 20.000,246.667 19.887,246.667 19.750 C 246.667 19.612,246.779 19.500,246.917 19.500 C 247.054 19.500,247.167 19.387,247.167 19.250 C 247.167 19.112,247.279 19.000,247.417 19.000 C 247.554 19.000,247.667 18.887,247.667 18.750 C 247.667 18.612,247.779 18.500,247.917 18.500 C 248.054 18.500,248.167 18.387,248.167 18.250 C 248.167 18.094,248.324 18.000,248.583 18.000 C 248.843 18.000,249.000 17.906,249.000 17.750 C 249.000 17.612,249.112 17.500,249.250 17.500 C 249.387 17.500,249.500 17.387,249.500 17.250 C 249.500 17.099,249.655 17.000,249.892 17.000 C 250.108 17.000,250.487 16.813,250.734 16.583 C 250.982 16.354,251.332 16.167,251.514 16.167 C 251.695 16.167,251.887 16.054,251.940 15.917 C 251.992 15.779,252.217 15.667,252.440 15.667 C 252.662 15.667,252.887 15.554,252.940 15.417 C 252.992 15.279,253.210 15.167,253.423 15.167 C 253.635 15.167,253.922 15.054,254.060 14.917 C 254.197 14.779,254.540 14.667,254.821 14.667 C 255.165 14.667,255.333 14.585,255.333 14.417 C 255.333 14.228,255.538 14.167,256.172 14.167 C 256.764 14.167,257.039 14.093,257.106 13.917 C 257.177 13.734,257.465 13.667,258.184 13.667 C 258.946 13.667,259.167 13.611,259.167 13.417 C 259.167 13.207,259.519 13.167,261.333 13.167 C 263.148 13.167,263.500 13.126,263.500 12.917 C 263.500 12.722,263.722 12.667,264.500 12.667 C 265.278 12.667,265.500 12.722,265.500 12.917 C 265.500 13.127,265.880 13.167,267.917 13.167 C 269.954 13.167,270.333 13.206,270.333 13.417 C 270.333 13.615,270.572 13.667,271.482 13.667 C 272.350 13.667,272.655 13.728,272.727 13.917 C 272.796 14.097,273.079 14.167,273.745 14.167 C 274.453 14.167,274.667 14.225,274.667 14.417 C 274.667 14.596,274.850 14.667,275.316 14.667 C 275.738 14.667,275.998 14.754,276.060 14.917 C 276.113 15.054,276.338 15.167,276.560 15.167 C 276.783 15.167,277.008 15.279,277.060 15.417 C 277.113 15.554,277.314 15.667,277.507 15.667 C 277.699 15.667,277.970 15.779,278.107 15.917 C 278.245 16.054,278.494 16.167,278.661 16.167 C 278.828 16.167,279.008 16.279,279.060 16.417 C 279.113 16.554,279.309 16.667,279.495 16.667 C 279.681 16.667,279.833 16.742,279.833 16.833 C 279.833 16.925,279.948 17.000,280.089 17.000 C 280.229 17.000,280.387 17.113,280.440 17.250 C 280.492 17.388,280.715 17.500,280.934 17.500 C 281.178 17.500,281.333 17.597,281.333 17.750 C 281.333 17.887,281.446 18.000,281.583 18.000 C 281.721 18.000,281.833 18.112,281.833 18.250 C 281.833 18.387,281.946 18.500,282.083 18.500 C 282.221 18.500,282.333 18.612,282.333 18.750 C 282.333 18.887,282.405 19.000,282.492 19.000 C 282.701 19.000,284.667 20.963,284.667 21.172 C 284.667 21.261,284.779 21.333,284.917 21.333 C 285.054 21.333,285.167 21.446,285.167 21.583 C 285.167 21.721,285.279 21.833,285.417 21.833 C 285.583 21.833,285.667 22.000,285.667 22.333 C 285.667 22.667,285.750 22.833,285.917 22.833 C 286.054 22.833,286.167 22.938,286.167 23.066 C 286.167 23.193,286.279 23.341,286.417 23.394 C 286.554 23.446,286.667 23.679,286.667 23.911 C 286.667 24.175,286.760 24.333,286.917 24.333 C 287.072 24.333,287.167 24.491,287.167 24.750 C 287.167 25.009,287.261 25.167,287.417 25.167 C 287.581 25.167,287.667 25.331,287.667 25.646 C 287.667 25.910,287.779 26.219,287.917 26.333 C 288.054 26.447,288.167 26.794,288.167 27.104 C 288.167 27.413,288.242 27.667,288.333 27.667 C 288.425 27.667,288.500 27.932,288.500 28.255 C 288.500 28.625,288.593 28.880,288.750 28.940 C 288.929 29.008,289.000 29.288,289.000 29.926 C 289.000 30.528,289.078 30.860,289.240 30.951 C 289.392 31.036,289.499 31.422,289.532 32.001 L 289.583 32.917 295.542 32.960 L 301.500 33.004 301.500 30.914 C 301.500 29.209,301.454 28.805,301.250 28.727 C 301.067 28.657,301.000 28.368,301.000 27.649 C 301.000 27.105,300.926 26.667,300.833 26.667 C 300.742 26.667,300.667 26.289,300.667 25.828 C 300.667 25.236,300.593 24.961,300.417 24.894 C 300.247 24.828,300.167 24.563,300.167 24.066 C 300.167 23.526,300.101 23.333,299.917 23.333 C 299.736 23.333,299.667 23.148,299.667 22.661 C 299.667 22.218,299.582 21.957,299.417 21.894 C 299.279 21.841,299.167 21.626,299.167 21.417 C 299.167 21.207,299.054 20.992,298.917 20.940 C 298.779 20.887,298.667 20.659,298.667 20.434 C 298.667 20.208,298.554 19.911,298.417 19.774 C 298.279 19.636,298.167 19.378,298.167 19.199 C 298.167 19.020,298.054 18.781,297.917 18.667 C 297.779 18.553,297.667 18.356,297.667 18.230 C 297.667 18.103,297.554 18.000,297.417 18.000 C 297.250 18.000,297.167 17.833,297.167 17.500 C 297.167 17.225,297.093 17.000,297.003 17.000 C 296.913 17.000,296.793 16.813,296.735 16.583 C 296.678 16.354,296.564 16.167,296.482 16.167 C 296.400 16.167,296.333 16.054,296.333 15.917 C 296.333 15.779,296.221 15.667,296.083 15.667 C 295.946 15.667,295.833 15.522,295.833 15.345 C 295.833 15.168,295.721 14.911,295.583 14.774 C 295.446 14.636,295.333 14.443,295.333 14.345 C 295.333 14.247,295.221 14.167,295.083 14.167 C 294.946 14.167,294.833 14.054,294.833 13.917 C 294.833 13.779,294.721 13.667,294.583 13.667 C 294.446 13.667,294.333 13.554,294.333 13.417 C 294.333 13.279,294.221 13.167,294.083 13.167 C 293.943 13.167,293.833 13.018,293.833 12.828 C 293.833 12.642,293.721 12.446,293.583 12.394 C 293.446 12.341,293.333 12.193,293.333 12.066 C 293.333 11.938,293.221 11.833,293.083 11.833 C 292.946 11.833,292.833 11.721,292.833 11.583 C 292.833 11.446,292.721 11.333,292.583 11.333 C 292.446 11.333,292.333 11.221,292.333 11.083 C 292.333 10.946,292.221 10.833,292.083 10.833 C 291.946 10.833,291.833 10.756,291.833 10.663 C 291.833 10.569,291.646 10.420,291.417 10.333 C 291.188 10.246,291.000 10.098,291.000 10.004 C 291.000 9.910,290.887 9.833,290.750 9.833 C 290.612 9.833,290.500 9.721,290.500 9.583 C 290.500 9.446,290.387 9.333,290.250 9.333 C 290.112 9.333,290.000 9.221,290.000 9.083 C 290.000 8.946,289.887 8.833,289.750 8.833 C 289.612 8.833,289.500 8.758,289.500 8.667 C 289.500 8.575,289.353 8.500,289.172 8.500 C 288.992 8.500,288.615 8.275,288.333 8.000 C 288.052 7.725,287.674 7.500,287.494 7.500 C 287.314 7.500,287.167 7.388,287.167 7.250 C 287.167 7.112,287.062 7.000,286.934 7.000 C 286.807 7.000,286.659 6.887,286.606 6.750 C 286.554 6.612,286.321 6.500,286.089 6.500 C 285.825 6.500,285.667 6.406,285.667 6.250 C 285.667 6.083,285.500 6.000,285.167 6.000 C 284.833 6.000,284.667 5.917,284.667 5.750 C 284.667 5.585,284.502 5.500,284.184 5.500 C 283.910 5.500,283.661 5.393,283.606 5.250 C 283.554 5.112,283.339 4.998,283.130 4.995 C 282.921 4.992,282.604 4.879,282.426 4.745 C 282.249 4.610,281.930 4.500,281.718 4.500 C 281.506 4.500,281.333 4.425,281.333 4.333 C 281.333 4.242,280.996 4.167,280.583 4.167 C 280.028 4.167,279.833 4.102,279.833 3.917 C 279.833 3.736,279.648 3.667,279.161 3.667 C 278.718 3.667,278.457 3.582,278.394 3.417 C 278.325 3.238,278.046 3.167,277.417 3.167 C 276.787 3.167,276.508 3.095,276.440 2.917 C 276.367 2.728,276.062 2.667,275.192 2.667 C 274.372 2.667,273.981 2.595,273.833 2.417 C 273.671 2.222,273.214 2.167,271.747 2.167 C 270.231 2.167,269.850 2.118,269.773 1.917 C 269.691 1.703,269.004 1.667,265.000 1.667 C 260.996 1.667,260.309 1.703,260.227 1.917 M353.727 2.917 C 353.651 3.114,353.303 3.167,352.060 3.167 C 350.818 3.167,350.469 3.219,350.394 3.417 C 350.323 3.600,350.035 3.667,349.316 3.667 C 348.554 3.667,348.333 3.723,348.333 3.917 C 348.333 4.111,348.111 4.167,347.333 4.167 C 346.778 4.167,346.333 4.241,346.333 4.333 C 346.333 4.425,346.031 4.500,345.661 4.500 C 345.218 4.500,344.957 4.585,344.894 4.750 C 344.831 4.913,344.572 5.000,344.149 5.000 C 343.683 5.000,343.500 5.071,343.500 5.250 C 343.500 5.414,343.336 5.500,343.020 5.500 C 342.757 5.500,342.447 5.612,342.333 5.750 C 342.219 5.888,341.908 6.000,341.641 6.000 C 341.364 6.000,341.115 6.107,341.060 6.250 C 341.008 6.388,340.785 6.500,340.566 6.500 C 340.322 6.500,340.167 6.597,340.167 6.750 C 340.167 6.917,340.000 7.000,339.667 7.000 C 339.333 7.000,339.167 7.083,339.167 7.250 C 339.167 7.390,339.018 7.500,338.828 7.500 C 338.642 7.500,338.446 7.612,338.394 7.750 C 338.341 7.888,338.156 8.000,337.982 8.000 C 337.809 8.000,337.667 8.068,337.667 8.150 C 337.667 8.233,337.455 8.374,337.197 8.464 C 336.939 8.555,336.432 8.899,336.072 9.230 C 335.712 9.561,335.321 9.832,335.203 9.833 C 335.086 9.833,334.946 9.946,334.894 10.083 C 334.841 10.221,334.693 10.333,334.566 10.333 C 334.438 10.333,334.333 10.446,334.333 10.583 C 334.333 10.721,334.221 10.833,334.083 10.833 C 333.946 10.833,333.833 10.946,333.833 11.083 C 333.833 11.221,333.721 11.333,333.583 11.333 C 333.446 11.333,333.333 11.446,333.333 11.583 C 333.333 11.721,333.221 11.833,333.083 11.833 C 332.946 11.833,332.833 11.946,332.833 12.083 C 332.833 12.221,332.752 12.333,332.652 12.333 C 332.441 12.333,331.000 13.777,331.000 13.989 C 331.000 14.067,330.887 14.174,330.750 14.227 C 330.612 14.280,330.500 14.513,330.500 14.745 C 330.500 15.009,330.406 15.167,330.250 15.167 C 330.112 15.167,330.000 15.279,330.000 15.417 C 330.000 15.554,329.887 15.667,329.750 15.667 C 329.583 15.667,329.500 15.833,329.500 16.167 C 329.500 16.500,329.417 16.667,329.250 16.667 C 329.112 16.667,329.000 16.771,329.000 16.899 C 329.000 17.027,328.887 17.174,328.750 17.227 C 328.612 17.280,328.500 17.467,328.500 17.644 C 328.500 17.820,328.387 18.008,328.250 18.060 C 328.112 18.113,328.000 18.338,328.000 18.560 C 328.000 18.783,327.887 19.008,327.750 19.060 C 327.612 19.113,327.500 19.346,327.500 19.578 C 327.500 19.810,327.432 20.000,327.348 20.000 C 327.264 20.000,327.145 20.300,327.083 20.666 C 327.022 21.032,326.903 21.374,326.819 21.426 C 326.735 21.477,326.667 21.815,326.667 22.177 C 326.667 22.649,326.597 22.833,326.417 22.833 C 326.222 22.833,326.167 23.056,326.167 23.833 C 326.167 24.611,326.111 24.833,325.917 24.833 C 325.714 24.833,325.667 25.102,325.667 26.250 C 325.667 27.398,325.619 27.667,325.417 27.667 C 325.202 27.667,325.167 28.204,325.167 31.500 C 325.167 34.796,325.202 35.333,325.417 35.333 C 325.616 35.333,325.667 35.581,325.667 36.563 C 325.667 37.453,325.736 37.850,325.917 38.000 C 326.069 38.127,326.167 38.492,326.167 38.937 C 326.167 39.474,326.233 39.667,326.417 39.667 C 326.590 39.667,326.667 39.841,326.667 40.240 C 326.667 40.556,326.736 40.856,326.821 40.909 C 326.905 40.961,327.024 41.228,327.084 41.502 C 327.144 41.776,327.256 42.000,327.333 42.000 C 327.410 42.000,327.523 42.225,327.583 42.500 C 327.644 42.775,327.762 43.000,327.847 43.000 C 327.931 43.000,328.000 43.112,328.000 43.250 C 328.000 43.387,328.112 43.500,328.250 43.500 C 328.406 43.500,328.500 43.658,328.500 43.922 C 328.500 44.154,328.612 44.387,328.750 44.440 C 328.887 44.492,329.000 44.640,329.000 44.768 C 329.000 44.896,329.112 45.000,329.250 45.000 C 329.390 45.000,329.500 45.149,329.500 45.339 C 329.500 45.525,329.612 45.720,329.750 45.773 C 329.887 45.826,330.000 45.973,330.000 46.101 C 330.000 46.229,330.112 46.333,330.250 46.333 C 330.387 46.333,330.500 46.446,330.500 46.583 C 330.500 46.721,330.612 46.833,330.750 46.833 C 330.887 46.833,331.000 46.911,331.000 47.006 C 331.000 47.303,332.986 49.157,333.421 49.266 C 333.648 49.323,333.833 49.474,333.833 49.601 C 333.833 49.729,333.946 49.833,334.083 49.833 C 334.221 49.833,334.333 49.908,334.333 50.000 C 334.333 50.092,334.446 50.167,334.583 50.167 C 334.721 50.167,334.833 50.279,334.833 50.417 C 334.833 50.557,334.982 50.667,335.172 50.667 C 335.359 50.667,335.731 50.892,336.000 51.167 C 336.269 51.442,336.641 51.667,336.828 51.667 C 337.018 51.667,337.167 51.776,337.167 51.917 C 337.167 52.073,337.325 52.167,337.589 52.167 C 337.821 52.167,338.054 52.279,338.106 52.417 C 338.159 52.554,338.275 52.667,338.363 52.667 C 338.451 52.667,338.636 52.779,338.774 52.917 C 338.911 53.054,339.168 53.167,339.345 53.167 C 339.522 53.167,339.667 53.227,339.667 53.301 C 339.667 53.465,340.844 54.000,341.205 54.000 C 341.348 54.000,341.508 54.112,341.560 54.250 C 341.613 54.387,341.838 54.500,342.060 54.500 C 342.283 54.500,342.508 54.612,342.560 54.750 C 342.624 54.915,342.885 55.000,343.328 55.000 C 343.814 55.000,344.000 55.069,344.000 55.250 C 344.000 55.403,344.155 55.500,344.399 55.500 C 344.618 55.500,344.841 55.612,344.894 55.750 C 344.946 55.887,345.170 56.000,345.391 56.000 C 345.612 56.000,345.886 56.113,346.000 56.250 C 346.114 56.387,346.461 56.500,346.770 56.500 C 347.160 56.500,347.333 56.577,347.333 56.750 C 347.333 56.910,347.498 57.002,347.792 57.005 C 348.044 57.008,348.396 57.121,348.574 57.255 C 348.751 57.390,349.051 57.502,349.240 57.505 C 349.429 57.508,349.729 57.621,349.907 57.755 C 350.085 57.890,350.441 58.000,350.699 58.000 C 350.956 58.000,351.167 58.075,351.167 58.167 C 351.167 58.258,351.504 58.333,351.917 58.333 C 352.472 58.333,352.667 58.398,352.667 58.583 C 352.667 58.764,352.852 58.833,353.333 58.833 C 353.815 58.833,354.000 58.903,354.000 59.083 C 354.000 59.269,354.194 59.333,354.750 59.333 C 355.306 59.333,355.500 59.398,355.500 59.583 C 355.500 59.769,355.694 59.833,356.250 59.833 C 356.806 59.833,357.000 59.898,357.000 60.083 C 357.000 60.263,357.183 60.333,357.649 60.333 C 358.072 60.333,358.331 60.420,358.394 60.583 C 358.456 60.747,358.716 60.833,359.144 60.833 C 359.571 60.833,359.831 60.920,359.894 61.083 C 359.956 61.247,360.216 61.333,360.644 61.333 C 361.071 61.333,361.331 61.420,361.394 61.583 C 361.454 61.740,361.709 61.833,362.078 61.833 C 362.402 61.833,362.667 61.908,362.667 62.000 C 362.667 62.092,363.004 62.167,363.417 62.167 C 363.972 62.167,364.167 62.231,364.167 62.417 C 364.167 62.602,364.361 62.667,364.917 62.667 C 365.472 62.667,365.667 62.731,365.667 62.917 C 365.667 63.097,365.852 63.167,366.333 63.167 C 366.815 63.167,367.000 63.236,367.000 63.417 C 367.000 63.577,367.164 63.669,367.458 63.672 C 367.710 63.675,368.062 63.787,368.240 63.922 C 368.418 64.057,368.774 64.167,369.032 64.167 C 369.337 64.167,369.500 64.254,369.500 64.417 C 369.500 64.592,369.677 64.667,370.089 64.667 C 370.458 64.667,370.713 64.760,370.773 64.917 C 370.827 65.056,371.074 65.167,371.333 65.167 C 371.592 65.167,371.840 65.277,371.894 65.417 C 371.946 65.554,372.179 65.667,372.411 65.667 C 372.643 65.667,372.833 65.736,372.833 65.820 C 372.833 65.904,373.058 66.023,373.333 66.083 C 373.608 66.144,373.833 66.262,373.833 66.347 C 373.833 66.431,374.023 66.500,374.255 66.500 C 374.487 66.500,374.720 66.612,374.773 66.750 C 374.826 66.887,375.048 67.000,375.268 67.000 C 375.511 67.000,375.667 67.097,375.667 67.250 C 375.667 67.417,375.833 67.500,376.167 67.500 C 376.500 67.500,376.667 67.583,376.667 67.750 C 376.667 67.887,376.811 68.000,376.988 68.000 C 377.165 68.000,377.422 68.112,377.560 68.250 C 377.697 68.388,377.890 68.500,377.988 68.500 C 378.086 68.500,378.167 68.604,378.167 68.731 C 378.167 68.857,378.298 69.005,378.458 69.059 C 378.903 69.208,379.326 69.522,380.007 70.208 C 380.348 70.552,380.711 70.833,380.814 70.833 C 380.916 70.833,381.000 70.946,381.000 71.083 C 381.000 71.221,381.113 71.333,381.250 71.333 C 381.387 71.333,381.500 71.446,381.500 71.583 C 381.500 71.721,381.613 71.833,381.750 71.833 C 381.887 71.833,382.000 71.946,382.000 72.083 C 382.000 72.221,382.113 72.333,382.250 72.333 C 382.387 72.333,382.500 72.446,382.500 72.583 C 382.500 72.721,382.570 72.833,382.655 72.833 C 382.741 72.833,382.862 73.002,382.925 73.208 C 382.987 73.415,383.206 73.808,383.410 74.083 C 383.614 74.358,383.831 74.790,383.893 75.042 C 383.956 75.294,384.080 75.500,384.170 75.500 C 384.260 75.500,384.333 75.762,384.333 76.083 C 384.333 76.491,384.409 76.667,384.583 76.667 C 384.775 76.667,384.833 76.878,384.833 77.566 C 384.833 78.211,384.904 78.491,385.083 78.560 C 385.290 78.639,385.333 79.079,385.333 81.078 C 385.333 83.120,385.294 83.500,385.083 83.500 C 384.885 83.500,384.833 83.742,384.833 84.679 C 384.833 85.504,384.758 85.932,384.583 86.107 C 384.446 86.245,384.333 86.644,384.333 86.994 C 384.333 87.406,384.245 87.665,384.083 87.727 C 383.946 87.780,383.833 88.018,383.833 88.257 C 383.833 88.495,383.721 88.803,383.583 88.940 C 383.446 89.078,383.333 89.362,383.333 89.571 C 383.333 89.780,383.146 90.154,382.917 90.401 C 382.688 90.648,382.500 90.989,382.500 91.157 C 382.500 91.326,382.387 91.508,382.250 91.560 C 382.113 91.613,382.000 91.771,382.000 91.911 C 382.000 92.052,381.887 92.167,381.750 92.167 C 381.594 92.167,381.500 92.324,381.500 92.583 C 381.500 92.843,381.406 93.000,381.250 93.000 C 381.113 93.000,381.000 93.112,381.000 93.250 C 381.000 93.388,380.887 93.500,380.750 93.500 C 380.613 93.500,380.500 93.612,380.500 93.750 C 380.500 93.888,380.387 94.000,380.250 94.000 C 380.113 94.000,380.000 94.112,380.000 94.250 C 380.000 94.388,379.887 94.500,379.750 94.500 C 379.613 94.500,379.500 94.612,379.500 94.750 C 379.500 94.888,379.387 95.000,379.250 95.000 C 379.113 95.000,379.000 95.112,379.000 95.250 C 379.000 95.388,378.861 95.500,378.691 95.500 C 378.521 95.500,378.186 95.682,377.946 95.904 C 377.707 96.126,377.358 96.356,377.172 96.415 C 376.986 96.474,376.833 96.592,376.833 96.678 C 376.833 96.763,376.683 96.833,376.500 96.833 C 376.315 96.833,376.167 96.944,376.167 97.083 C 376.167 97.250,376.000 97.333,375.667 97.333 C 375.333 97.333,375.167 97.417,375.167 97.583 C 375.167 97.739,375.009 97.833,374.750 97.833 C 374.491 97.833,374.333 97.928,374.333 98.083 C 374.333 98.269,374.139 98.333,373.583 98.333 C 373.028 98.333,372.833 98.398,372.833 98.583 C 372.833 98.764,372.648 98.833,372.161 98.833 C 371.718 98.833,371.457 98.918,371.394 99.083 C 371.331 99.246,371.072 99.333,370.649 99.333 C 370.292 99.333,370.000 99.400,370.000 99.481 C 370.000 99.563,369.461 99.659,368.803 99.697 C 368.070 99.738,367.580 99.842,367.539 99.965 C 367.492 100.108,366.892 100.167,365.498 100.167 C 363.965 100.167,363.468 100.223,363.274 100.417 C 362.913 100.777,357.904 100.773,357.426 100.411 C 357.189 100.232,356.629 100.167,355.315 100.167 C 354.166 100.167,353.506 100.101,353.467 99.984 C 353.433 99.883,352.902 99.760,352.286 99.711 C 351.670 99.661,351.167 99.556,351.167 99.477 C 351.167 99.398,350.717 99.333,350.167 99.333 C 349.389 99.333,349.167 99.278,349.167 99.083 C 349.167 98.908,348.990 98.833,348.578 98.833 C 348.209 98.833,347.954 98.740,347.894 98.583 C 347.839 98.441,347.590 98.333,347.316 98.333 C 346.998 98.333,346.833 98.248,346.833 98.083 C 346.833 97.919,346.669 97.833,346.351 97.833 C 346.076 97.833,345.828 97.726,345.773 97.583 C 345.720 97.446,345.487 97.333,345.255 97.333 C 344.991 97.333,344.833 97.240,344.833 97.083 C 344.833 96.927,344.675 96.833,344.411 96.833 C 344.179 96.833,343.946 96.721,343.894 96.583 C 343.841 96.446,343.674 96.333,343.522 96.333 C 343.371 96.333,343.044 96.146,342.797 95.917 C 342.550 95.688,342.278 95.500,342.192 95.500 C 342.106 95.500,341.992 95.387,341.940 95.250 C 341.887 95.112,341.654 95.000,341.422 95.000 C 341.158 95.000,341.000 94.906,341.000 94.750 C 341.000 94.612,340.887 94.500,340.750 94.500 C 340.612 94.500,340.500 94.388,340.500 94.250 C 340.500 94.112,340.387 94.000,340.250 94.000 C 340.112 94.000,340.000 93.915,340.000 93.811 C 340.000 93.707,339.813 93.448,339.583 93.235 C 339.354 93.023,339.167 92.771,339.167 92.675 C 339.167 92.579,339.054 92.500,338.917 92.500 C 338.779 92.500,338.667 92.396,338.667 92.268 C 338.667 92.140,338.554 91.992,338.417 91.940 C 338.279 91.887,338.167 91.691,338.167 91.505 C 338.167 91.315,338.057 91.167,337.917 91.167 C 337.779 91.167,337.667 91.054,337.667 90.917 C 337.667 90.779,337.554 90.667,337.417 90.667 C 337.250 90.667,337.167 90.500,337.167 90.167 C 337.167 89.833,337.083 89.667,336.917 89.667 C 336.776 89.667,336.667 89.518,336.667 89.328 C 336.667 89.142,336.554 88.946,336.417 88.894 C 336.279 88.841,336.167 88.616,336.167 88.394 C 336.167 88.171,336.054 87.946,335.917 87.894 C 335.774 87.839,335.667 87.590,335.667 87.316 C 335.667 87.050,335.602 86.833,335.522 86.833 C 335.442 86.833,335.335 86.516,335.283 86.129 C 335.231 85.741,335.108 85.397,335.011 85.365 C 334.913 85.332,334.833 84.946,334.833 84.507 C 334.833 84.000,334.742 83.632,334.583 83.500 C 334.389 83.339,334.333 82.890,334.333 81.497 C 334.333 79.279,334.999 79.500,328.323 79.500 L 322.840 79.500 322.735 79.917 C 322.547 80.666,322.732 85.299,322.959 85.526 C 323.077 85.644,323.167 86.151,323.167 86.700 C 323.167 87.448,323.223 87.667,323.417 87.667 C 323.609 87.667,323.667 87.880,323.667 88.589 C 323.667 89.254,323.736 89.537,323.917 89.606 C 324.072 89.666,324.167 89.919,324.167 90.273 C 324.167 90.627,324.262 90.880,324.417 90.940 C 324.559 90.994,324.667 91.243,324.667 91.518 C 324.667 91.835,324.752 92.000,324.917 92.000 C 325.081 92.000,325.167 92.165,325.167 92.482 C 325.167 92.757,325.274 93.006,325.417 93.060 C 325.554 93.113,325.667 93.338,325.667 93.560 C 325.667 93.783,325.779 94.008,325.917 94.060 C 326.054 94.113,326.167 94.346,326.167 94.578 C 326.167 94.842,326.260 95.000,326.417 95.000 C 326.572 95.000,326.667 95.157,326.667 95.417 C 326.667 95.646,326.734 95.833,326.815 95.833 C 326.897 95.833,327.008 96.008,327.061 96.221 C 327.115 96.435,327.348 96.814,327.579 97.063 C 327.811 97.313,328.000 97.580,328.000 97.657 C 328.000 97.735,328.112 97.841,328.250 97.894 C 328.387 97.946,328.500 98.116,328.500 98.270 C 328.500 98.572,329.538 99.667,329.825 99.667 C 329.921 99.667,330.000 99.779,330.000 99.917 C 330.000 100.054,330.112 100.167,330.250 100.167 C 330.387 100.167,330.501 100.260,330.503 100.375 C 330.506 100.633,331.927 102.167,332.162 102.167 C 332.256 102.167,332.333 102.279,332.333 102.417 C 332.333 102.554,332.446 102.667,332.583 102.667 C 332.721 102.667,332.833 102.779,332.833 102.917 C 332.833 103.054,332.912 103.167,333.008 103.167 C 333.104 103.167,333.356 103.354,333.569 103.583 C 333.781 103.813,334.032 104.000,334.126 104.000 C 334.221 104.000,334.341 104.112,334.394 104.250 C 334.446 104.387,334.679 104.500,334.911 104.500 C 335.175 104.500,335.333 104.594,335.333 104.750 C 335.333 104.888,335.446 105.000,335.583 105.000 C 335.721 105.000,335.833 105.112,335.833 105.250 C 335.833 105.406,335.991 105.500,336.250 105.500 C 336.509 105.500,336.667 105.594,336.667 105.750 C 336.667 105.888,336.747 106.000,336.845 106.000 C 336.943 106.000,337.136 106.113,337.274 106.250 C 337.411 106.388,337.660 106.500,337.827 106.500 C 337.994 106.500,338.174 106.612,338.227 106.750 C 338.280 106.887,338.505 107.000,338.727 107.000 C 338.949 107.000,339.174 107.113,339.227 107.250 C 339.280 107.388,339.471 107.500,339.652 107.500 C 339.832 107.500,340.027 107.575,340.083 107.667 C 340.140 107.758,340.369 107.833,340.593 107.833 C 340.844 107.833,341.000 107.929,341.000 108.083 C 341.000 108.248,341.165 108.333,341.482 108.333 C 341.757 108.333,342.006 108.441,342.060 108.583 C 342.124 108.748,342.385 108.833,342.828 108.833 C 343.314 108.833,343.500 108.902,343.500 109.083 C 343.500 109.264,343.685 109.333,344.167 109.333 C 344.648 109.333,344.833 109.403,344.833 109.583 C 344.833 109.769,345.028 109.833,345.583 109.833 C 346.139 109.833,346.333 109.898,346.333 110.083 C 346.333 110.278,346.556 110.333,347.333 110.333 C 348.111 110.333,348.333 110.389,348.333 110.583 C 348.333 110.776,348.548 110.833,349.262 110.833 C 349.865 110.833,350.278 110.921,350.440 111.083 C 350.625 111.268,351.076 111.333,352.165 111.333 C 353.196 111.333,353.660 111.396,353.708 111.542 C 353.823 111.887,366.519 111.931,367.205 111.589 C 367.550 111.417,368.201 111.333,369.198 111.333 C 370.359 111.333,370.698 111.280,370.773 111.083 C 370.845 110.895,371.148 110.833,372.000 110.833 C 372.852 110.833,373.155 110.772,373.227 110.583 C 373.295 110.407,373.570 110.333,374.167 110.333 C 374.763 110.333,375.039 110.260,375.106 110.083 C 375.172 109.914,375.437 109.833,375.934 109.833 C 376.474 109.833,376.667 109.768,376.667 109.583 C 376.667 109.402,376.852 109.333,377.339 109.333 C 377.782 109.333,378.043 109.248,378.106 109.083 C 378.169 108.920,378.428 108.833,378.851 108.833 C 379.317 108.833,379.500 108.763,379.500 108.583 C 379.500 108.417,379.667 108.333,380.000 108.333 C 380.333 108.333,380.500 108.250,380.500 108.083 C 380.500 107.917,380.667 107.833,381.000 107.833 C 381.275 107.833,381.500 107.758,381.500 107.667 C 381.500 107.575,381.690 107.500,381.922 107.500 C 382.154 107.500,382.387 107.388,382.440 107.250 C 382.492 107.112,382.715 107.000,382.934 107.000 C 383.178 107.000,383.333 106.903,383.333 106.750 C 383.333 106.612,383.478 106.500,383.655 106.500 C 383.832 106.500,384.089 106.387,384.226 106.250 C 384.364 106.112,384.557 106.000,384.655 106.000 C 384.753 106.000,384.833 105.888,384.833 105.750 C 384.833 105.597,384.989 105.500,385.232 105.500 C 385.452 105.500,385.674 105.387,385.727 105.250 C 385.780 105.112,385.938 105.000,386.078 105.000 C 386.218 105.000,386.333 104.888,386.333 104.750 C 386.333 104.612,386.446 104.500,386.583 104.500 C 386.721 104.500,386.833 104.388,386.833 104.250 C 386.833 104.110,386.982 104.000,387.172 104.000 C 387.358 104.000,387.554 103.888,387.606 103.750 C 387.659 103.613,387.778 103.500,387.871 103.500 C 387.963 103.500,388.330 103.200,388.686 102.833 C 389.042 102.467,389.408 102.167,389.500 102.167 C 389.592 102.167,389.667 102.094,389.667 102.006 C 389.667 101.917,389.892 101.615,390.167 101.333 C 390.442 101.052,390.667 100.710,390.667 100.572 C 390.667 100.435,390.779 100.280,390.917 100.227 C 391.054 100.174,391.167 100.054,391.167 99.960 C 391.167 99.865,391.354 99.614,391.583 99.402 C 391.813 99.190,392.000 98.862,392.000 98.675 C 392.000 98.482,392.109 98.333,392.250 98.333 C 392.387 98.333,392.500 98.221,392.500 98.083 C 392.500 97.946,392.613 97.833,392.750 97.833 C 392.917 97.833,393.000 97.667,393.000 97.333 C 393.000 97.000,393.083 96.833,393.250 96.833 C 393.417 96.833,393.500 96.667,393.500 96.333 C 393.500 96.000,393.583 95.833,393.750 95.833 C 393.903 95.833,394.000 95.678,394.000 95.434 C 394.000 95.215,394.113 94.992,394.250 94.940 C 394.387 94.887,394.500 94.662,394.500 94.440 C 394.500 94.217,394.613 93.992,394.750 93.940 C 394.887 93.887,395.000 93.649,395.000 93.410 C 395.000 93.171,395.113 92.864,395.250 92.726 C 395.387 92.589,395.500 92.261,395.500 91.998 C 395.500 91.735,395.575 91.473,395.667 91.417 C 395.758 91.360,395.833 90.951,395.833 90.508 C 395.833 89.946,395.909 89.673,396.083 89.606 C 396.273 89.534,396.333 89.227,396.333 88.339 C 396.333 87.408,396.385 87.167,396.583 87.167 C 396.801 87.167,396.833 86.391,396.833 81.187 C 396.833 76.075,396.797 75.177,396.583 75.000 C 396.417 74.862,396.333 74.489,396.333 73.891 C 396.333 73.243,396.263 72.963,396.083 72.894 C 395.921 72.831,395.833 72.573,395.833 72.159 C 395.833 71.807,395.758 71.473,395.667 71.417 C 395.575 71.360,395.500 71.147,395.500 70.944 C 395.500 70.741,395.399 70.426,395.275 70.245 C 395.151 70.065,395.000 69.710,394.938 69.458 C 394.877 69.206,394.753 69.000,394.663 69.000 C 394.574 69.000,394.500 68.816,394.500 68.592 C 394.500 68.367,394.406 68.123,394.292 68.050 C 394.051 67.896,393.700 67.376,393.562 66.970 C 393.510 66.816,393.362 66.649,393.234 66.600 C 393.105 66.551,393.000 66.356,393.000 66.167 C 393.000 65.978,392.887 65.780,392.750 65.727 C 392.613 65.674,392.500 65.527,392.500 65.399 C 392.500 65.271,392.387 65.167,392.250 65.167 C 392.113 65.167,392.000 65.054,392.000 64.917 C 392.000 64.779,391.887 64.667,391.750 64.667 C 391.613 64.667,391.500 64.529,391.500 64.361 C 391.500 64.193,391.200 63.731,390.833 63.333 C 390.467 62.936,390.167 62.549,390.167 62.472 C 390.167 62.396,390.054 62.333,389.917 62.333 C 389.779 62.333,389.667 62.221,389.667 62.083 C 389.667 61.946,389.554 61.833,389.417 61.833 C 389.279 61.833,389.167 61.721,389.167 61.583 C 389.167 61.446,389.054 61.333,388.917 61.333 C 388.779 61.333,388.667 61.262,388.667 61.176 C 388.667 61.020,388.025 60.609,387.458 60.401 C 387.298 60.343,387.167 60.229,387.167 60.149 C 387.167 59.911,386.609 59.333,386.380 59.333 C 386.262 59.333,386.167 59.263,386.167 59.178 C 386.167 59.092,386.005 58.971,385.807 58.908 C 385.610 58.846,385.282 58.616,385.080 58.397 C 384.871 58.172,384.521 58.000,384.273 58.000 C 383.993 58.000,383.833 57.909,383.833 57.750 C 383.833 57.612,383.729 57.500,383.601 57.500 C 383.473 57.500,383.326 57.387,383.273 57.250 C 383.220 57.112,383.022 57.000,382.833 57.000 C 382.644 57.000,382.446 56.887,382.394 56.750 C 382.341 56.613,382.118 56.500,381.899 56.500 C 381.655 56.500,381.500 56.403,381.500 56.250 C 381.500 56.083,381.333 56.000,381.000 56.000 C 380.667 56.000,380.500 55.917,380.500 55.750 C 380.500 55.594,380.342 55.500,380.078 55.500 C 379.846 55.500,379.613 55.387,379.560 55.250 C 379.506 55.107,379.257 55.000,378.982 55.000 C 378.665 55.000,378.500 54.915,378.500 54.750 C 378.500 54.594,378.343 54.500,378.083 54.500 C 377.854 54.500,377.667 54.431,377.667 54.347 C 377.667 54.262,377.442 54.144,377.167 54.083 C 376.892 54.023,376.667 53.904,376.667 53.820 C 376.667 53.736,376.442 53.667,376.167 53.667 C 375.833 53.667,375.667 53.583,375.667 53.417 C 375.667 53.231,375.472 53.167,374.917 53.167 C 374.361 53.167,374.167 53.102,374.167 52.917 C 374.167 52.760,374.009 52.667,373.745 52.667 C 373.513 52.667,373.280 52.554,373.227 52.417 C 373.164 52.254,372.905 52.167,372.482 52.167 C 372.017 52.167,371.833 52.096,371.833 51.917 C 371.833 51.731,371.639 51.667,371.083 51.667 C 370.528 51.667,370.333 51.602,370.333 51.417 C 370.333 51.252,370.169 51.167,369.854 51.167 C 369.590 51.167,369.281 51.054,369.167 50.917 C 369.053 50.779,368.715 50.667,368.417 50.667 C 368.118 50.667,367.781 50.554,367.667 50.417 C 367.549 50.274,367.185 50.167,366.823 50.167 C 366.473 50.167,366.140 50.092,366.083 50.000 C 366.027 49.908,365.685 49.833,365.323 49.833 C 364.851 49.833,364.667 49.763,364.667 49.583 C 364.667 49.398,364.472 49.333,363.917 49.333 C 363.361 49.333,363.167 49.269,363.167 49.083 C 363.167 48.899,362.974 48.833,362.434 48.833 C 361.937 48.833,361.672 48.753,361.606 48.583 C 361.539 48.407,361.264 48.333,360.672 48.333 C 360.038 48.333,359.833 48.272,359.833 48.083 C 359.833 47.898,359.639 47.833,359.083 47.833 C 358.528 47.833,358.333 47.769,358.333 47.583 C 358.333 47.398,358.139 47.333,357.583 47.333 C 357.028 47.333,356.833 47.269,356.833 47.083 C 356.833 46.908,356.656 46.833,356.238 46.833 C 355.911 46.833,355.530 46.721,355.393 46.583 C 355.255 46.446,354.886 46.333,354.571 46.333 C 354.257 46.333,354.000 46.259,354.000 46.169 C 354.000 46.078,353.698 45.956,353.330 45.897 C 352.961 45.838,352.619 45.724,352.570 45.645 C 352.521 45.565,352.268 45.500,352.008 45.500 C 351.742 45.500,351.494 45.391,351.440 45.250 C 351.380 45.093,351.125 45.000,350.755 45.000 C 350.343 45.000,350.167 44.925,350.167 44.750 C 350.167 44.583,350.000 44.500,349.667 44.500 C 349.333 44.500,349.167 44.417,349.167 44.250 C 349.167 44.075,348.990 44.000,348.578 44.000 C 348.209 44.000,347.954 43.907,347.894 43.750 C 347.841 43.612,347.616 43.500,347.394 43.500 C 347.171 43.500,346.946 43.387,346.894 43.250 C 346.841 43.112,346.616 43.000,346.394 43.000 C 346.171 43.000,345.946 42.887,345.894 42.750 C 345.841 42.612,345.693 42.500,345.566 42.500 C 345.438 42.500,345.333 42.431,345.333 42.347 C 345.333 42.262,345.108 42.144,344.833 42.083 C 344.558 42.023,344.333 41.913,344.333 41.838 C 344.333 41.764,344.146 41.656,343.917 41.598 C 343.688 41.541,343.500 41.420,343.500 41.330 C 343.500 41.240,343.387 41.167,343.250 41.167 C 343.113 41.167,343.000 41.054,343.000 40.917 C 343.000 40.779,342.896 40.667,342.768 40.667 C 342.640 40.667,342.492 40.554,342.440 40.417 C 342.387 40.279,342.154 40.167,341.922 40.167 C 341.658 40.167,341.500 40.073,341.500 39.917 C 341.500 39.779,341.387 39.667,341.250 39.667 C 341.112 39.667,341.000 39.554,341.000 39.417 C 341.000 39.279,340.887 39.167,340.750 39.167 C 340.612 39.167,340.500 39.054,340.500 38.917 C 340.500 38.779,340.387 38.667,340.250 38.667 C 340.112 38.667,340.000 38.554,340.000 38.417 C 340.000 38.279,339.926 38.167,339.837 38.167 C 339.747 38.167,339.626 37.979,339.568 37.750 C 339.511 37.521,339.397 37.333,339.315 37.333 C 339.234 37.333,339.167 37.221,339.167 37.083 C 339.167 36.946,339.054 36.833,338.917 36.833 C 338.760 36.833,338.667 36.675,338.667 36.411 C 338.667 36.179,338.554 35.946,338.417 35.894 C 338.279 35.841,338.167 35.616,338.167 35.394 C 338.167 35.171,338.054 34.946,337.917 34.894 C 337.754 34.831,337.667 34.572,337.667 34.149 C 337.667 33.683,337.596 33.500,337.417 33.500 C 337.204 33.500,337.167 33.067,337.167 30.601 C 337.167 28.178,337.208 27.687,337.417 27.606 C 337.583 27.543,337.667 27.281,337.667 26.827 C 337.667 26.441,337.776 26.034,337.917 25.893 C 338.054 25.755,338.167 25.458,338.167 25.233 C 338.167 25.007,338.279 24.780,338.417 24.727 C 338.554 24.674,338.667 24.460,338.667 24.250 C 338.667 24.040,338.779 23.826,338.917 23.773 C 339.054 23.720,339.167 23.521,339.167 23.331 C 339.167 23.140,339.354 22.810,339.583 22.598 C 339.825 22.374,340.000 22.027,340.000 21.773 C 340.000 21.493,340.091 21.333,340.250 21.333 C 340.387 21.333,340.500 21.221,340.500 21.083 C 340.500 20.946,340.585 20.833,340.689 20.833 C 340.793 20.833,341.052 20.646,341.265 20.417 C 341.477 20.188,341.729 20.000,341.825 20.000 C 341.921 20.000,342.000 19.887,342.000 19.750 C 342.000 19.612,342.113 19.500,342.250 19.500 C 342.387 19.500,342.500 19.387,342.500 19.250 C 342.500 19.112,342.613 19.000,342.750 19.000 C 342.887 19.000,343.000 18.887,343.000 18.750 C 343.000 18.594,343.157 18.500,343.417 18.500 C 343.676 18.500,343.833 18.406,343.833 18.250 C 343.833 18.112,343.946 18.000,344.083 18.000 C 344.221 18.000,344.333 17.887,344.333 17.750 C 344.333 17.583,344.500 17.500,344.833 17.500 C 345.167 17.500,345.333 17.417,345.333 17.250 C 345.333 17.083,345.500 17.000,345.833 17.000 C 346.108 17.000,346.333 16.925,346.333 16.833 C 346.333 16.742,346.478 16.667,346.655 16.667 C 346.832 16.667,347.089 16.554,347.226 16.417 C 347.364 16.279,347.626 16.167,347.810 16.167 C 347.993 16.167,348.255 16.054,348.393 15.917 C 348.530 15.779,348.873 15.667,349.155 15.667 C 349.499 15.667,349.667 15.585,349.667 15.417 C 349.667 15.228,349.871 15.167,350.505 15.167 C 351.097 15.167,351.372 15.093,351.440 14.917 C 351.510 14.734,351.799 14.667,352.518 14.667 C 353.280 14.667,353.500 14.611,353.500 14.417 C 353.500 14.211,353.794 14.167,355.149 14.167 C 356.461 14.167,356.817 14.116,356.894 13.917 C 356.974 13.706,357.516 13.667,360.340 13.667 C 363.096 13.667,363.735 13.711,363.940 13.917 C 364.123 14.099,364.569 14.167,365.600 14.167 C 366.700 14.167,367.032 14.222,367.106 14.417 C 367.176 14.599,367.464 14.667,368.173 14.667 C 368.813 14.667,369.228 14.752,369.393 14.917 C 369.530 15.054,369.903 15.167,370.220 15.167 C 370.580 15.167,370.834 15.261,370.894 15.417 C 370.956 15.580,371.216 15.667,371.644 15.667 C 372.071 15.667,372.331 15.753,372.394 15.917 C 372.446 16.054,372.679 16.167,372.911 16.167 C 373.143 16.167,373.333 16.236,373.333 16.320 C 373.333 16.404,373.558 16.523,373.833 16.583 C 374.108 16.644,374.333 16.762,374.333 16.847 C 374.333 16.931,374.521 17.000,374.750 17.000 C 375.009 17.000,375.167 17.094,375.167 17.250 C 375.167 17.417,375.333 17.500,375.667 17.500 C 376.000 17.500,376.167 17.583,376.167 17.750 C 376.167 17.887,376.279 18.000,376.417 18.000 C 376.554 18.000,376.667 18.112,376.667 18.250 C 376.667 18.417,376.833 18.500,377.167 18.500 C 377.500 18.500,377.667 18.583,377.667 18.750 C 377.667 18.887,377.779 19.000,377.917 19.000 C 378.054 19.000,378.167 19.112,378.167 19.250 C 378.167 19.387,378.279 19.500,378.417 19.500 C 378.554 19.500,378.667 19.578,378.667 19.672 C 378.667 19.888,379.621 20.833,379.839 20.833 C 379.928 20.833,380.000 20.946,380.000 21.083 C 380.000 21.221,380.113 21.333,380.250 21.333 C 380.387 21.333,380.500 21.438,380.500 21.566 C 380.500 21.693,380.613 21.841,380.750 21.894 C 380.887 21.946,381.000 22.179,381.000 22.411 C 381.000 22.675,381.094 22.833,381.250 22.833 C 381.387 22.833,381.500 22.938,381.500 23.066 C 381.500 23.193,381.613 23.341,381.750 23.394 C 381.887 23.446,382.000 23.679,382.000 23.911 C 382.000 24.175,382.094 24.333,382.250 24.333 C 382.414 24.333,382.500 24.498,382.500 24.814 C 382.500 25.079,382.612 25.510,382.749 25.773 C 382.886 26.035,382.998 26.377,382.999 26.532 C 383.000 26.687,383.075 26.860,383.167 26.917 C 383.258 26.973,383.333 27.385,383.333 27.831 C 383.333 28.322,383.430 28.739,383.578 28.887 C 383.757 29.067,383.835 29.633,383.869 31.024 L 383.917 32.917 389.667 32.917 L 395.417 32.917 395.462 29.942 C 395.499 27.543,395.459 26.868,395.254 26.458 C 395.114 26.178,395.000 25.600,395.000 25.173 C 395.000 24.746,394.890 24.251,394.755 24.074 C 394.621 23.896,394.508 23.466,394.505 23.120 C 394.502 22.717,394.410 22.455,394.250 22.394 C 394.087 22.331,394.000 22.072,394.000 21.649 C 394.000 21.183,393.929 21.000,393.750 21.000 C 393.583 21.000,393.500 20.833,393.500 20.500 C 393.500 20.167,393.417 20.000,393.250 20.000 C 393.083 20.000,393.000 19.833,393.000 19.500 C 393.000 19.167,392.917 19.000,392.750 19.000 C 392.583 19.000,392.500 18.833,392.500 18.500 C 392.500 18.167,392.417 18.000,392.250 18.000 C 392.094 18.000,392.000 17.842,392.000 17.578 C 392.000 17.346,391.887 17.113,391.750 17.060 C 391.613 17.008,391.500 16.812,391.500 16.626 C 391.500 16.440,391.321 16.123,391.103 15.920 C 390.884 15.718,390.654 15.390,390.592 15.193 C 390.529 14.995,390.408 14.833,390.322 14.833 C 390.237 14.833,390.167 14.718,390.167 14.578 C 390.167 14.438,390.054 14.280,389.917 14.227 C 389.779 14.174,389.667 14.027,389.667 13.899 C 389.667 13.771,389.554 13.667,389.417 13.667 C 389.279 13.667,389.167 13.554,389.167 13.417 C 389.167 13.279,389.088 13.167,388.992 13.167 C 388.896 13.167,388.644 12.979,388.431 12.750 C 388.219 12.521,387.960 12.333,387.856 12.333 C 387.752 12.333,387.667 12.221,387.667 12.083 C 387.667 11.946,387.554 11.833,387.417 11.833 C 387.279 11.833,387.167 11.748,387.167 11.644 C 387.167 11.540,386.979 11.281,386.750 11.069 C 386.521 10.856,386.333 10.604,386.333 10.508 C 386.333 10.412,386.221 10.333,386.083 10.333 C 385.946 10.333,385.833 10.262,385.833 10.176 C 385.833 10.020,385.192 9.609,384.625 9.401 C 384.465 9.343,384.333 9.191,384.333 9.064 C 384.333 8.937,384.221 8.833,384.083 8.833 C 383.946 8.833,383.833 8.758,383.833 8.667 C 383.833 8.575,383.689 8.500,383.512 8.500 C 383.335 8.500,383.078 8.387,382.940 8.250 C 382.803 8.112,382.570 8.000,382.423 8.000 C 382.276 8.000,382.113 7.887,382.060 7.750 C 382.008 7.612,381.868 7.500,381.750 7.500 C 381.632 7.500,381.492 7.387,381.440 7.250 C 381.387 7.112,381.162 7.000,380.940 7.000 C 380.717 7.000,380.492 6.888,380.440 6.750 C 380.387 6.612,380.162 6.500,379.940 6.500 C 379.717 6.500,379.492 6.387,379.440 6.250 C 379.385 6.107,379.136 6.000,378.859 6.000 C 378.592 6.000,378.281 5.887,378.167 5.750 C 378.053 5.612,377.789 5.500,377.581 5.500 C 377.373 5.500,377.159 5.388,377.106 5.250 C 377.046 5.092,376.790 5.000,376.410 5.000 C 376.080 5.000,375.697 4.887,375.560 4.750 C 375.422 4.612,375.052 4.500,374.738 4.500 C 374.424 4.500,374.167 4.425,374.167 4.333 C 374.167 4.242,373.754 4.167,373.250 4.167 C 372.546 4.167,372.333 4.109,372.333 3.917 C 372.333 3.717,372.083 3.667,371.083 3.667 C 370.083 3.667,369.833 3.617,369.833 3.417 C 369.833 3.211,369.537 3.167,368.167 3.167 C 366.796 3.167,366.500 3.122,366.500 2.917 C 366.500 2.699,365.685 2.667,360.161 2.667 C 354.681 2.667,353.810 2.701,353.727 2.917 M104.167 28.403 C 104.167 48.444,104.124 53.653,103.958 53.708 C 103.793 53.764,103.750 59.473,103.750 81.514 L 103.750 109.250 109.792 109.294 L 115.833 109.337 115.833 88.669 C 115.833 75.001,115.890 68.000,116.000 68.000 C 116.105 68.000,116.167 66.917,116.167 65.083 L 116.167 62.167 135.669 62.167 L 155.171 62.167 155.127 56.458 L 155.083 50.750 135.625 50.708 L 116.167 50.665 116.167 32.666 L 116.167 14.667 142.667 14.667 L 169.167 14.667 169.167 9.167 L 169.167 3.667 166.250 3.667 C 163.769 3.667,163.333 3.629,163.333 3.417 C 163.333 3.195,159.935 3.167,133.750 3.167 L 104.167 3.167 104.167 28.403 M192.333 56.500 L 192.333 109.333 196.917 109.333 C 200.880 109.333,201.500 109.367,201.500 109.583 C 201.500 109.902,203.820 109.947,204.133 109.633 C 204.288 109.479,204.333 99.537,204.333 65.901 C 204.333 27.360,204.362 22.358,204.583 22.273 C 204.801 22.189,204.833 20.995,204.833 12.922 L 204.833 3.667 198.583 3.667 L 192.333 3.667 192.333 56.500 M38.574 35.089 C 38.833 35.285,39.554 35.333,42.199 35.333 L 45.500 35.333 45.500 42.750 L 45.500 50.167 46.899 50.167 C 47.988 50.167,48.319 50.222,48.394 50.417 C 48.463 50.597,48.746 50.667,49.411 50.667 C 50.120 50.667,50.333 50.725,50.333 50.917 C 50.333 51.074,50.492 51.167,50.762 51.167 C 50.998 51.167,51.303 51.279,51.440 51.417 C 51.578 51.554,51.875 51.667,52.100 51.667 C 52.326 51.667,52.554 51.779,52.606 51.917 C 52.659 52.054,52.798 52.167,52.914 52.167 C 53.031 52.167,53.219 52.279,53.333 52.417 C 53.447 52.554,53.682 52.667,53.854 52.667 C 54.026 52.667,54.167 52.779,54.167 52.917 C 54.167 53.054,54.279 53.167,54.417 53.167 C 54.554 53.167,54.667 53.242,54.667 53.333 C 54.667 53.425,54.771 53.500,54.899 53.500 C 55.027 53.500,55.174 53.612,55.227 53.750 C 55.280 53.887,55.421 54.000,55.541 54.000 C 55.787 54.000,56.667 54.942,56.667 55.206 C 56.667 55.301,56.854 55.552,57.083 55.765 C 57.313 55.977,57.500 56.229,57.500 56.325 C 57.500 56.421,57.612 56.500,57.750 56.500 C 57.906 56.500,58.000 56.658,58.000 56.922 C 58.000 57.154,58.112 57.387,58.250 57.440 C 58.387 57.492,58.500 57.680,58.500 57.856 C 58.500 58.033,58.612 58.220,58.750 58.273 C 58.893 58.328,59.000 58.576,59.000 58.851 C 59.000 59.169,59.085 59.333,59.250 59.333 C 59.417 59.333,59.500 59.500,59.500 59.833 C 59.500 60.167,59.583 60.333,59.750 60.333 C 59.935 60.333,60.000 60.528,60.000 61.083 L 60.000 61.833 52.750 61.833 L 45.500 61.833 45.500 69.250 L 45.500 76.667 39.500 76.667 L 33.500 76.667 33.500 69.250 L 33.500 61.833 31.750 61.833 C 30.306 61.833,30.000 61.790,30.000 61.583 C 30.000 61.392,29.789 61.333,29.101 61.333 C 28.456 61.333,28.175 61.263,28.106 61.083 C 28.043 60.918,27.782 60.833,27.339 60.833 C 26.852 60.833,26.667 60.764,26.667 60.583 C 26.667 60.419,26.502 60.333,26.184 60.333 C 25.910 60.333,25.661 60.226,25.606 60.083 C 25.554 59.946,25.366 59.833,25.190 59.833 C 25.013 59.833,24.826 59.721,24.773 59.583 C 24.720 59.446,24.487 59.333,24.255 59.333 C 23.991 59.333,23.833 59.240,23.833 59.083 C 23.833 58.946,23.755 58.833,23.659 58.833 C 23.563 58.833,23.310 58.646,23.098 58.417 C 22.886 58.188,22.627 58.000,22.523 58.000 C 22.418 58.000,22.333 57.887,22.333 57.750 C 22.333 57.612,22.221 57.500,22.083 57.500 C 21.946 57.500,21.833 57.387,21.833 57.250 C 21.833 57.112,21.758 57.000,21.667 57.000 C 21.575 57.000,21.500 56.887,21.500 56.750 C 21.500 56.612,21.387 56.500,21.250 56.500 C 21.112 56.500,21.000 56.355,21.000 56.179 C 21.000 56.002,20.897 55.755,20.772 55.629 C 20.647 55.504,20.492 55.236,20.427 55.034 C 20.363 54.832,20.241 54.667,20.155 54.667 C 20.070 54.667,20.000 54.477,20.000 54.245 C 20.000 54.013,19.887 53.780,19.750 53.727 C 19.611 53.673,19.500 53.426,19.500 53.167 C 19.500 52.908,19.389 52.660,19.250 52.606 C 19.070 52.537,19.000 52.257,19.000 51.609 C 19.000 51.011,18.916 50.638,18.750 50.500 C 17.971 49.854,18.191 49.833,26.000 49.833 L 33.500 49.833 33.500 42.333 L 33.500 34.833 35.875 34.839 C 37.699 34.843,38.325 34.901,38.574 35.089 " stroke="none" fill="#040404" fill-rule="evenodd"></path><path id="path1" d="" stroke="none" fill="#040c0c" fill-rule="evenodd"></path><path id="path2" d="" stroke="none" fill="#080404" fill-rule="evenodd"></path><path id="path3" d="" stroke="none" fill="#04040c" fill-rule="evenodd"></path><path id="path4" d="" stroke="none" fill="#080404" fill-rule="evenodd"></path></g></svg>