<svg width="168" height="72" viewBox="0 0 168 72" fill="none" xmlns="http://www.w3.org/2000/svg">
<path d="M128.63 16.0998C127.4 16.3658 126.304 17.057 125.535 18.0516C124.398 19.5478 123.859 21.7021 124.026 24.0729C124.164 26.0395 124.763 27.5644 125.838 28.6781C126.824 29.7039 127.858 30.1446 129.465 30.2099C131.133 30.282 132.167 29.9065 133.2 28.851C133.546 28.5042 133.759 28.3302 133.779 28.3885C133.8 28.4389 133.918 28.8145 134.041 29.2266L134.263 29.9786L134.896 30.0004L135.531 30.0221L135.531 22.7862L129.947 22.7862L129.947 25.0987L131.284 25.0987C132.829 25.0987 132.766 25.071 132.642 25.7865C132.435 26.9428 131.733 27.6444 130.567 27.8608C129.347 28.0852 128.217 27.427 127.651 26.1769C127.203 25.1867 127.031 23.9929 127.121 22.5115C127.217 20.9363 127.624 19.7217 128.279 19.0349C128.733 18.5576 129.161 18.356 129.816 18.3194C131.167 18.2404 132.153 19.0132 132.539 20.4589C132.642 20.8562 132.678 20.9135 132.801 20.8859C132.884 20.8641 133.511 20.7772 134.207 20.6833C135.344 20.5311 135.462 20.5093 135.462 20.3799C135.462 20.3068 135.366 19.9451 135.248 19.5774C134.662 17.7344 133.331 16.5119 131.45 16.1008C130.857 15.9625 129.264 15.9704 128.63 16.1008L128.63 16.0998ZM-5.25181e-07 23.0758L-1.04024e-06 30.0152L2.82635 30.0152L2.82635 24.1599L7.308 24.1599L7.308 30.0152L10.1344 30.0152L10.1344 16.1364L7.308 16.1364L7.308 21.7031L2.82635 21.7031L2.82635 16.1364L-1.01238e-08 16.1364L-5.25254e-07 23.0768L-5.25181e-07 23.0758ZM17.0273 23.0758L17.0273 30.0152L26.4027 30.0152L26.4027 27.6296L19.8536 27.6296L19.8536 24.1599L25.0241 24.1599L25.0241 21.7743L19.8536 21.7743L19.8536 18.5941L26.4027 18.5941L26.4027 16.1364L17.0273 16.1364L17.0273 23.0768L17.0273 23.0758ZM33.0901 23.0758L33.0901 30.0152L35.9164 30.0152L35.9164 24.4494L38.5155 24.4494L39.5432 27.2323L40.57 30.0152L42.1482 30.0152C43.6168 30.0152 43.7195 30.0073 43.6859 29.8847C43.6721 29.8195 43.1207 28.432 42.4724 26.8054C41.8172 25.1867 41.2934 23.8486 41.3072 23.8417C42.2797 23.394 42.9131 22.8159 43.2649 22.0569C43.5614 21.4343 43.6583 20.9214 43.6504 20.1486C43.6306 18.3698 42.6789 16.9537 41.1768 16.4477C40.4178 16.2016 39.4464 16.1364 36.1091 16.1364L33.0901 16.1364L33.0901 23.0768L33.0901 23.0758ZM39.5008 18.4933C40.2113 18.7246 40.7143 19.4836 40.7005 20.2919C40.6936 21.0371 40.2874 21.7456 39.6944 22.0708C39.315 22.2733 38.6529 22.3524 37.212 22.3524L35.9164 22.3524L35.9164 18.3846L36.9709 18.355C38.3564 18.3194 39.1223 18.3629 39.5008 18.4933ZM48.808 16.2016C48.808 16.2382 49.6904 19.3462 50.7726 23.1114C51.8547 26.8775 52.7372 29.9717 52.7372 29.9855C52.7372 30.0004 53.6197 30.0152 54.7018 30.0152C55.7839 30.0152 56.6664 30.0004 56.6664 29.9855C56.6664 29.9717 57.536 26.921 58.5964 23.2062C59.263 20.9049 59.9206 18.601 60.5689 16.2945L60.6104 16.1364L57.5776 16.1364L57.4807 16.4754C57.4264 16.67 56.785 19.0556 56.0478 21.795L54.7038 26.7609L54.5852 26.3488C54.5239 26.1176 53.8756 23.7251 53.1453 21.0292L51.8201 16.1364L50.318 16.1364C49.4829 16.1364 48.808 16.166 48.808 16.2016ZM67.0765 23.0758L67.0765 30.0152L76.4519 30.0152L76.4519 27.6296L69.9028 27.6296L69.9028 24.1599L75.0733 24.1599L75.0733 21.7743L69.9028 21.7743L69.9028 18.5941L76.4519 18.5941L76.4519 16.1364L67.0765 16.1364L67.0765 23.0768L67.0765 23.0758ZM92.652 23.0758L92.652 30.0152L100.925 30.0152L100.925 27.5574L95.4783 27.5574L95.4783 16.1364L92.652 16.1364L92.652 23.0768L92.652 23.0758ZM109.334 23.0758L109.334 30.0152L118.71 30.0152L118.71 27.6296L112.161 27.6296L112.161 24.1599L117.331 24.1599L117.331 21.7743L112.161 21.7743L112.161 18.5941L118.71 18.5941L118.71 16.1364L109.334 16.1364L109.334 23.0768L109.334 23.0758ZM141.942 23.0758L141.942 30.0152L151.318 30.0152L151.318 27.6296L144.769 27.6296L144.769 24.1599L149.87 24.1599L149.87 21.7743L144.769 21.7743L144.769 18.5941L151.318 18.5942L151.318 16.1364L141.942 16.1364L141.942 23.0768L141.942 23.0758ZM157.383 23.0689L157.383 30.0152L160.21 30.0152L160.21 24.4494L162.816 24.4494L163.154 25.3665C163.347 25.8804 163.809 27.1305 164.181 28.1494L164.863 30.0152L166.435 30.0152C167.359 30.0152 168 29.9855 168 29.95C168 29.9065 167.456 28.518 166.794 26.8637C166.39 25.8589 165.993 24.8516 165.602 23.8417C165.925 23.7112 166.587 23.314 166.807 23.1193C168.324 21.7387 168.359 18.8896 166.863 17.3292C166.366 16.8084 165.815 16.4981 165.036 16.3103C164.595 16.2086 163.995 16.1868 160.955 16.1582L157.383 16.1216L157.383 23.0689ZM163.74 18.4568C164.119 18.5576 164.546 18.941 164.787 19.3897C164.967 19.7217 165.002 19.8591 165.002 20.2564C164.995 20.8058 164.808 21.3187 164.464 21.6873C163.967 22.2368 163.45 22.3524 161.506 22.3524L160.211 22.3524L160.211 18.3846L161.3 18.355C162.561 18.3263 163.381 18.3629 163.741 18.4568L163.74 18.4568ZM117.069 43.0253C116.084 43.3 115.325 43.9078 114.953 44.7251C114.677 45.3309 114.636 46.1985 114.843 46.914C115.195 48.1295 116.111 48.9102 117.813 49.4587C119.469 49.9864 120.227 50.5715 120.468 51.5113C120.84 52.9422 120.033 54.1647 118.531 54.4532C117.476 54.6628 115.987 54.1864 114.987 53.3267L114.609 53.0005L114.491 53.5935L114.374 54.1933L114.629 54.4246C115.008 54.7705 115.904 55.2191 116.573 55.3861C117.29 55.5591 118.552 55.5808 119.123 55.4217C120.358 55.0758 121.309 54.1499 121.605 53.0075C121.723 52.545 121.702 51.4826 121.571 50.9984C121.212 49.7038 120.178 48.8588 118.228 48.2659C116.629 47.7886 115.863 47.0444 115.87 45.9604C115.87 45.4109 116.015 45.0275 116.38 44.6371C116.856 44.1311 117.222 44.0017 118.193 44.0086C118.931 44.0086 119.075 44.0303 119.537 44.2112C119.82 44.3268 120.234 44.5294 120.454 44.6589C120.674 44.7972 120.868 44.9049 120.875 44.9049C120.917 44.9049 121.144 43.893 121.116 43.8643C120.971 43.7339 120.434 43.4295 120.081 43.2862C119.123 42.8741 117.979 42.7802 117.069 43.0253ZM46.2573 49.2423L46.2573 55.314L47.4294 55.314L47.4294 50.5645L49.0352 50.5211C51.2133 50.4707 51.8063 50.2898 52.5721 49.4439C53.2471 48.7067 53.5505 47.7026 53.4744 46.5019C53.3647 44.8318 52.4891 43.6756 51.0344 43.2783C50.7241 43.1913 50.1658 43.1696 48.4492 43.1696L46.2573 43.1696L46.2573 49.2423ZM50.4692 44.2547C51.2272 44.4059 51.7934 44.8545 52.0958 45.5334C52.7303 46.9792 52.1927 48.7432 50.9593 49.2492C50.5996 49.4004 50.4208 49.4152 49.0007 49.4439L47.4294 49.4735L47.4294 44.1825L48.7664 44.1825C49.4977 44.1825 50.2626 44.2181 50.4692 44.2547ZM66.8343 43.4374C65.2725 47.3775 63.7217 51.3218 62.1817 55.2705C62.1817 55.2923 62.4436 55.314 62.7608 55.314L63.3399 55.314L63.6562 54.4967C63.8291 54.056 64.1394 53.2614 64.346 52.7475L64.7116 51.8087L70.054 51.8087L70.7438 53.5579L71.4326 55.314L72.0532 55.314C72.6116 55.314 72.6669 55.2992 72.6323 55.1835C72.6046 55.1183 71.5364 52.3938 70.2536 49.1336L67.9175 43.2061L67.4273 43.1844L66.945 43.1627L66.8343 43.4374ZM68.5242 47.9042C69.1033 49.3717 69.5915 50.6219 69.6064 50.6653C69.634 50.7385 69.1646 50.7602 67.3927 50.7602C66.1594 50.7602 65.1455 50.7454 65.1455 50.7236C65.1455 50.6871 66.614 46.8853 67.1654 45.49C67.3314 45.064 67.3868 44.984 67.4273 45.0927C67.455 45.1648 67.9451 46.4298 68.5242 47.9042ZM83.3448 49.2423L83.3448 55.314L84.4487 55.314L84.4487 50.3264L86.8264 50.3264L88.4737 52.8197L90.1142 55.314L90.7625 55.314C91.1212 55.314 91.4108 55.2844 91.4108 55.2557C91.4108 55.2191 90.6528 54.0777 89.7288 52.7041C88.1713 50.3916 88.0607 50.2108 88.198 50.1524C88.9293 49.8273 89.2604 49.6316 89.5707 49.3213C90.1972 48.6988 90.5144 47.8252 90.5144 46.7124C90.5144 44.9415 89.6458 43.6983 88.1229 43.2862C87.7849 43.1913 87.2819 43.1706 85.5239 43.1706L83.3448 43.1706L83.3448 49.2423ZM87.5151 44.2616C88.5291 44.4563 89.1289 45.0858 89.3434 46.1629C89.5084 46.9931 89.2742 47.9912 88.791 48.512C88.2188 49.1257 87.7573 49.2423 85.8618 49.2423L84.4487 49.2423L84.4487 44.1825L85.7788 44.1825C86.5101 44.1825 87.2958 44.2181 87.5161 44.2616L87.5151 44.2616ZM102.165 49.2423L102.165 55.314L103.269 55.314L103.269 43.1706L102.165 43.1706L102.165 49.2423Z" fill="black"/>
</svg>
