<svg width="168" height="72" viewBox="0 0 168 72" fill="none" xmlns="http://www.w3.org/2000/svg">
<path d="M10.612 38.78H4.564L3.5 41.244C3.248 41.86 3.108 42.308 3.108 42.616C3.108 42.868 3.22 43.064 3.444 43.232C3.668 43.4 4.172 43.54 4.928 43.596V44.016H0V43.596C0.644 43.484 1.064 43.344 1.26 43.148C1.652 42.784 2.1 42.028 2.576 40.908L8.092 28.028H8.484L13.944 41.048C14.392 42.084 14.784 42.784 15.148 43.092C15.512 43.4 16.016 43.568 16.632 43.624V44.044H10.472V43.624C11.088 43.596 11.508 43.484 11.732 43.316C11.956 43.148 12.068 42.924 12.068 42.672C12.068 42.336 11.9 41.804 11.62 41.076L10.612 38.78ZM10.304 37.912L7.644 31.584L4.928 37.912H10.304ZM35.028 39.676L35.42 39.76L34.076 44.016H21.952V43.596H22.54C23.212 43.596 23.688 43.372 23.968 42.952C24.136 42.7 24.22 42.14 24.22 41.244V31.136C24.22 30.156 24.108 29.54 23.884 29.288C23.576 28.952 23.128 28.784 22.54 28.784H21.952V28.364H29.036V28.784C28.196 28.784 27.636 28.84 27.3 29.008C26.964 29.176 26.74 29.372 26.6 29.624C26.488 29.876 26.404 30.464 26.404 31.388V41.216C26.404 41.86 26.46 42.28 26.6 42.532C26.684 42.7 26.824 42.812 27.02 42.896C27.216 42.98 27.804 43.008 28.812 43.008H29.96C31.164 43.008 32.004 42.924 32.48 42.756C32.956 42.588 33.404 42.252 33.796 41.804C34.216 41.356 34.636 40.656 35.028 39.676ZM54.488 39.676L54.88 39.76L53.536 44.016H41.412V43.596H42C42.672 43.596 43.148 43.372 43.428 42.952C43.596 42.7 43.68 42.14 43.68 41.244V31.136C43.68 30.156 43.568 29.54 43.344 29.288C43.036 28.952 42.588 28.784 42 28.784H41.412V28.364H48.496V28.784C47.656 28.784 47.096 28.84 46.76 29.008C46.424 29.176 46.2 29.372 46.06 29.624C45.948 29.876 45.864 30.464 45.864 31.388V41.216C45.864 41.86 45.92 42.28 46.06 42.532C46.144 42.7 46.284 42.812 46.48 42.896C46.676 42.98 47.264 43.008 48.272 43.008H49.42C50.624 43.008 51.464 42.924 51.94 42.756C52.416 42.588 52.864 42.252 53.256 41.804C53.704 41.356 54.096 40.656 54.488 39.676ZM71.26 28V33.404H70.84C70.7 32.368 70.448 31.528 70.084 30.912C69.72 30.296 69.216 29.82 68.544 29.456C67.872 29.092 67.2 28.924 66.5 28.924C65.688 28.924 65.044 29.176 64.512 29.652C63.98 30.128 63.728 30.688 63.728 31.332C63.728 31.808 63.896 32.256 64.232 32.648C64.708 33.236 65.856 33.992 67.648 34.944C69.104 35.728 70.112 36.344 70.644 36.736C71.176 37.156 71.596 37.66 71.876 38.22C72.156 38.78 72.296 39.396 72.296 40.012C72.296 41.188 71.848 42.224 70.924 43.064C70 43.932 68.824 44.352 67.368 44.352C66.92 44.352 66.5 44.324 66.08 44.24C65.828 44.212 65.352 44.072 64.596 43.82C63.84 43.568 63.364 43.456 63.168 43.456C62.972 43.456 62.832 43.512 62.72 43.624C62.608 43.736 62.524 43.988 62.468 44.352H62.048V38.976H62.468C62.664 40.096 62.944 40.936 63.28 41.496C63.616 42.056 64.148 42.504 64.82 42.896C65.52 43.26 66.276 43.456 67.116 43.456C68.068 43.456 68.824 43.204 69.384 42.7C69.944 42.196 70.224 41.58 70.224 40.908C70.224 40.516 70.112 40.124 69.916 39.732C69.692 39.34 69.384 38.976 68.936 38.64C68.628 38.416 67.816 37.912 66.472 37.156C65.128 36.4 64.176 35.812 63.616 35.364C63.056 34.916 62.608 34.412 62.328 33.88C62.048 33.348 61.88 32.76 61.88 32.116C61.88 30.996 62.3 30.016 63.168 29.204C64.036 28.392 65.128 28 66.444 28C67.284 28 68.152 28.196 69.076 28.616C69.496 28.812 69.804 28.896 70 28.896C70.196 28.896 70.364 28.84 70.504 28.728C70.644 28.616 70.728 28.364 70.812 28H71.26ZM89.012 38.78H82.964L81.9 41.244C81.648 41.86 81.508 42.308 81.508 42.616C81.508 42.868 81.62 43.064 81.844 43.232C82.068 43.4 82.572 43.54 83.328 43.596V44.016H78.4V43.596C79.044 43.484 79.464 43.344 79.66 43.148C80.052 42.784 80.5 42.028 80.976 40.908L86.492 28.028H86.884L92.344 41.048C92.792 42.084 93.184 42.784 93.548 43.092C93.912 43.4 94.416 43.568 95.032 43.624V44.044H88.872V43.624C89.488 43.596 89.908 43.484 90.132 43.316C90.356 43.148 90.468 42.924 90.468 42.672C90.468 42.336 90.3 41.804 90.02 41.076L89.012 38.78ZM88.676 37.912L86.016 31.584L83.3 37.912H88.676ZM107.156 43.568V43.988H100.464V43.568H101.024C101.668 43.568 102.144 43.372 102.424 43.008C102.62 42.756 102.704 42.168 102.704 41.244V31.136C102.704 30.352 102.648 29.82 102.564 29.568C102.48 29.372 102.34 29.204 102.088 29.064C101.752 28.868 101.388 28.784 101.024 28.784H100.464V28.364H107.156V28.784H106.596C105.952 28.784 105.504 28.98 105.196 29.344C105 29.596 104.916 30.184 104.916 31.108V41.216C104.916 42 104.972 42.532 105.056 42.784C105.14 42.98 105.308 43.148 105.532 43.288C105.868 43.484 106.204 43.568 106.596 43.568H107.156ZM113.344 28.364H117.6L127.176 40.096V31.08C127.176 30.128 127.064 29.512 126.84 29.288C126.56 28.952 126.112 28.812 125.496 28.812H124.964V28.392H130.424V28.812H129.864C129.192 28.812 128.744 29.008 128.464 29.4C128.296 29.652 128.212 30.212 128.212 31.08V44.268H127.792L117.488 31.668V41.3C117.488 42.252 117.6 42.868 117.796 43.092C118.076 43.428 118.552 43.568 119.14 43.568H119.7V43.988H114.24V43.568H114.772C115.444 43.568 115.92 43.372 116.2 42.98C116.368 42.728 116.452 42.168 116.452 41.3V30.408C116.004 29.876 115.668 29.54 115.416 29.344C115.164 29.148 114.828 29.008 114.38 28.868C114.156 28.812 113.82 28.756 113.372 28.756V28.364H113.344ZM149.884 28.364L150.052 32.032H149.604C149.52 31.388 149.408 30.912 149.268 30.66C149.016 30.212 148.708 29.876 148.316 29.68C147.924 29.484 147.392 29.372 146.748 29.372H144.536V41.328C144.536 42.28 144.648 42.896 144.844 43.12C145.124 43.456 145.6 43.596 146.188 43.596H146.72V44.016H140.084V43.596H140.644C141.316 43.596 141.764 43.4 142.044 43.008C142.212 42.756 142.296 42.196 142.296 41.328V29.372H140.42C139.692 29.372 139.16 29.428 138.852 29.54C138.46 29.68 138.096 29.96 137.816 30.38C137.536 30.8 137.368 31.36 137.312 32.06H136.864L137.06 28.392H149.884V28.364ZM166.964 28V33.404H166.544C166.404 32.368 166.152 31.528 165.788 30.912C165.424 30.296 164.92 29.82 164.248 29.456C163.576 29.092 162.904 28.924 162.204 28.924C161.392 28.924 160.748 29.176 160.216 29.652C159.684 30.128 159.432 30.688 159.432 31.332C159.432 31.808 159.6 32.256 159.936 32.648C160.412 33.236 161.56 33.992 163.352 34.944C164.808 35.728 165.816 36.344 166.348 36.736C166.88 37.128 167.3 37.66 167.58 38.22C167.86 38.78 168 39.396 168 40.012C168 41.188 167.552 42.224 166.628 43.064C165.704 43.932 164.528 44.352 163.072 44.352C162.624 44.352 162.204 44.324 161.784 44.24C161.532 44.212 161.056 44.072 160.3 43.82C159.544 43.568 159.068 43.456 158.872 43.456C158.676 43.456 158.536 43.512 158.424 43.624C158.312 43.736 158.228 43.988 158.172 44.352H157.752V38.976H158.172C158.368 40.096 158.648 40.936 158.984 41.496C159.32 42.056 159.852 42.504 160.524 42.896C161.224 43.26 161.98 43.456 162.82 43.456C163.772 43.456 164.528 43.204 165.088 42.7C165.648 42.196 165.928 41.58 165.928 40.908C165.928 40.516 165.816 40.124 165.62 39.732C165.396 39.34 165.088 38.976 164.64 38.64C164.332 38.416 163.52 37.912 162.176 37.156C160.832 36.4 159.88 35.812 159.32 35.364C158.76 34.916 158.312 34.412 158.032 33.88C157.752 33.348 157.584 32.76 157.584 32.116C157.584 30.996 158.004 30.016 158.872 29.204C159.74 28.392 160.832 28 162.148 28C162.988 28 163.856 28.196 164.78 28.616C165.2 28.812 165.508 28.896 165.704 28.896C165.9 28.896 166.068 28.84 166.208 28.728C166.348 28.616 166.432 28.364 166.516 28H166.964Z" fill="black"/>
</svg>
