<svg width="48" height="48" viewBox="0 0 48 48" fill="none" xmlns="http://www.w3.org/2000/svg">
<rect width="48" height="48" fill="#020202"/>
<path fill-rule="evenodd" clip-rule="evenodd" d="M33.0426 24.8349C33.323 24.5663 33.6076 24.2927 33.8965 24.0097C34.4731 23.4492 35.0597 22.899 35.6561 22.3595C37.9697 20.2449 39.498 18.8497 39.498 14.718C39.498 11.0761 36.277 8 32.4648 8C28.7627 8 25.7476 11.0134 25.7476 14.718H29.2972C29.2981 13.8781 29.6321 13.0729 30.2259 12.4789C30.8198 11.8849 31.6249 11.5507 32.4648 11.5496C34.2887 11.5496 35.9492 13.0593 35.9492 14.718C35.9492 17.2849 35.4341 17.756 33.2628 19.7392C32.636 20.3064 32.0198 20.8851 31.4143 21.475C31.1348 21.7478 30.856 22.0147 30.5849 22.2756C28.6136 24.1682 26.5863 26.1158 25.9764 28.9538H22.5369V18.055H18.9889V28.9538H13.7687L16.8863 18.565L13.4874 17.545L9 32.5026H18.9881V40H22.5369V32.5026H39.2447V28.9538H29.6708C30.2046 27.6153 31.3652 26.4462 33.0426 24.8349Z" fill="white"/>
</svg>
