<svg width="168" height="72" viewBox="0 0 168 72" fill="none" xmlns="http://www.w3.org/2000/svg">
<path d="M87.5853 37.2848L71.7383 37.2848L71.7383 35.3809L87.5853 35.3809L87.5853 37.2848ZM127.763 34.9609L120.063 34.9609L120.063 36.8648L127.763 36.8648L127.763 34.9609Z" fill="black"/>
<path d="M0 49.8582L0 47.9543L11.9832 47.9543C15.623 47.9543 18.4228 47.1704 20.5227 45.5465C22.1466 44.3146 23.2665 42.7187 23.9105 40.6468C24.3584 39.2189 24.5824 37.679 24.5824 36.0551L24.5544 31.6594C24.5544 31.5194 24.5544 31.4074 24.5544 31.3514V31.3234L24.5544 30.3715L24.4984 22.196L26.4303 22.196L26.4863 31.2954C26.4863 31.5474 26.5143 32.1073 26.5143 33.5073C26.5143 33.5353 26.5143 33.5913 26.5143 33.6193C26.5143 34.2352 26.5423 34.8232 26.5423 35.2712C26.5423 35.5511 26.5423 35.7751 26.5143 35.9711V35.9991C26.5143 37.791 26.2623 39.5269 25.7584 41.1508C24.9744 43.5866 23.6025 45.5465 21.6986 47.0024C19.2348 48.8783 16.043 49.7742 11.9832 49.8022L0 49.8582ZM49.6968 49.8862C53.5046 49.8862 56.5004 48.4303 58.6563 45.5465C60.5601 42.9987 61.5121 39.8629 61.5121 36.1951C61.5121 32.4433 60.5321 29.1955 58.6003 26.5637C56.3604 23.5399 53.3646 22 49.6968 22L40.0934 22C36.4257 22 33.4299 23.5399 31.246 26.5637C29.2861 29.2235 28.3062 32.4433 28.3062 36.1671C28.3062 39.8349 29.2861 42.9987 31.19 45.5185C33.3459 48.4023 36.3137 49.8582 40.0934 49.8582L49.6968 49.8862ZM40.0375 47.9543C36.9016 47.9543 34.4938 46.7784 32.7019 44.3986C31.022 42.1867 30.1821 39.4989 30.1821 36.1951C30.1821 32.8913 31.05 30.0355 32.7579 27.7116C34.6058 25.1638 36.9856 23.9319 40.0655 23.9319L49.6688 23.9319C52.7206 23.9319 55.1285 25.1638 57.0324 27.7116C58.7403 30.0355 59.5522 32.8073 59.5522 36.1951C59.5522 39.4709 58.7403 42.1587 57.0884 44.3986C55.3245 46.7784 52.8326 47.9543 49.6688 47.9543L49.6688 48.9063L49.6688 47.9543L40.0375 47.9543ZM89.4263 47.9543L72.3754 47.9543C70.1075 47.9543 68.3437 47.2264 67.0557 45.7985C65.8798 44.5106 65.2918 42.9427 65.2918 40.9828C65.2918 40.1148 65.2918 38.379 65.2918 36.5591C65.2918 34.3192 65.2918 31.9674 65.2918 30.9314C65.2918 28.9996 65.8518 27.4317 67.0557 26.1437C68.3157 24.7158 70.0795 23.9879 72.3474 23.9879L89.3983 23.9879L89.3983 22.084L72.3754 22.084C69.5756 22.084 67.2517 23.0639 65.6558 24.8838C64.1439 26.5357 63.388 28.5516 63.388 30.9594C63.388 32.0234 63.388 34.3752 63.388 36.5871C63.388 38.4069 63.388 40.1428 63.388 41.0108C63.388 43.4466 64.1439 45.4905 65.6278 47.1144C67.2517 48.9343 69.5756 49.9142 72.3754 49.9142L89.4263 49.9142L89.4263 47.9543ZM93.458 35.0192C95.6419 35.0192 97.4898 34.3192 98.9737 32.9753C100.514 31.5754 101.298 29.8395 101.298 27.8796L101.298 22.336L99.3657 22.336L99.3657 27.8796C99.3657 29.3355 98.8337 30.5115 97.6578 31.5754C96.5378 32.6113 95.1379 33.1153 93.4301 33.1153L91.1062 33.1153V35.0192L93.458 35.0192ZM112.973 34.9352C111.181 34.9352 109.753 34.3752 108.745 33.2553C107.821 32.2473 107.345 30.9874 107.345 29.4475C107.345 27.9356 107.793 26.7037 108.745 25.6678C109.781 24.5198 111.181 23.9599 112.973 23.9599L126.972 23.9599L126.972 22.056L112.973 22.056C110.649 22.056 108.745 22.8399 107.317 24.4078C106.057 25.7798 105.413 27.4876 105.413 29.4755C105.413 31.5194 106.029 33.1993 107.317 34.5712C108.689 36.0831 110.649 36.895 112.973 36.895L112.973 34.9352ZM120 49.7742C122.324 49.7742 124.228 48.9903 125.656 47.4224C126.916 46.0505 127.56 44.3426 127.56 42.3547C127.56 40.3108 126.944 38.6309 125.656 37.259C124.284 35.7471 122.324 34.9632 120 34.9632L120 36.867C121.792 36.867 123.22 37.427 124.228 38.5469C125.152 39.5549 125.628 40.8148 125.628 42.3547C125.628 43.8666 125.18 45.0985 124.228 46.1345C123.192 47.2824 121.792 47.8424 120 47.8424L106.001 47.8424L106.001 49.7462L120 49.7462V49.7742ZM133.971 22.224L133.971 31.6594C133.971 31.6594 133.887 32.5553 135.147 32.3593C136.407 32.1634 142.651 32.0234 141.615 38.5189C141.419 39.9749 139.347 49.3823 131.144 47.3104L131.2 49.4383L142.791 49.4383C142.791 49.4383 148.083 49.1023 148.139 41.7667L148.139 22.28L133.971 22.224ZM150.154 22.28L150.154 32.8633C150.154 32.8633 155.082 31.9674 157.994 31.9674C160.906 31.9674 164.77 32.8913 165.189 36.895C165.245 40.3948 165.637 43.3906 163.79 44.8185C162.166 46.0785 157.882 48.4303 150.126 44.0626L150.126 49.4383L164.21 49.4383C164.21 49.4383 167.569 49.5222 167.849 48.0943C168.129 46.6944 167.933 31.6594 167.933 26.8717C167.933 25.1358 167.037 22.308 163.986 22.252C161.326 22.224 150.154 22.28 150.154 22.28ZM156.874 38.7709C156.874 37.259 155.642 36.0271 154.13 36.0271C152.618 36.0271 151.386 37.259 151.386 38.7709C151.386 40.2828 152.618 41.5148 154.13 41.5148C155.642 41.5148 156.874 40.2828 156.874 38.7709Z" fill="black"/>
</svg>
