<svg width="215" height="88" viewBox="0 0 215 88" fill="none" xmlns="http://www.w3.org/2000/svg">
<g id="logo-rebecca-minkoff-2 1" clip-path="url(#clip0_4_303)" filter="url(#filter0_d_4_303)">
<path id="Vector" d="M113.559 9.54121C109.228 10.2055 105.51 12.8175 103.873 16.317C102.957 18.2972 102.723 20.4729 103.199 22.5706C103.676 24.6683 104.841 26.5947 106.55 28.1082C108.461 29.8061 110.729 30.8544 113.492 31.3114C115.095 31.5771 116.255 31.5771 117.841 31.3114C120.348 30.8982 122.429 30.028 124.254 28.625L125.175 27.9315L123.845 26.7808L122.531 25.6436L121.61 26.2933C119.837 27.5475 117.994 28.1241 115.743 28.1241C113.357 28.1241 111.291 27.3561 109.519 25.8362C105.987 22.8097 106.022 18.0428 109.603 14.9871C111.446 13.4087 113.253 12.7736 115.847 12.7736C118.113 12.7736 120.076 13.4087 121.73 14.6629L122.615 15.3272L123.912 14.2059L125.209 13.0832L124.799 12.6846C123.504 11.5049 120.98 10.2347 118.916 9.76175C117.654 9.46814 114.788 9.3499 113.561 9.54121H113.559ZM142.964 9.46814C140.218 9.85077 137.608 11.0026 135.715 12.6567C134.589 13.6598 133.975 14.4264 133.242 15.7696C132.338 17.4078 132.065 18.4999 132.065 20.4489C132.065 22.5148 132.338 23.5338 133.446 25.4669C134.112 26.648 134.488 27.0745 135.784 28.2118C137.098 29.3331 137.591 29.6586 138.955 30.2339C140.882 31.0603 142.128 31.3552 144.073 31.4735C147.347 31.6661 150.894 30.5581 153.299 28.6104L154.152 27.9169L152.839 26.7808L151.525 25.629L150.672 26.2933C149.751 27.0014 148.166 27.7256 146.971 27.9607C145.811 28.1972 143.578 28.1534 142.519 27.8877C139.126 27.0306 136.567 24.493 136.039 21.5104C135.493 18.3085 137.506 14.9738 140.9 13.5256C144.174 12.1386 148.217 12.5956 150.758 14.6629L151.594 15.3418L152.94 14.1753L154.272 13.0248L153.419 12.3458C151.781 11.0465 150.093 10.2347 148.079 9.76308C147.039 9.51198 143.901 9.3499 142.962 9.46814H142.964ZM170.73 10.8113C170.457 11.3561 168.018 16.0805 165.323 21.2899C162.645 26.5151 160.445 30.8092 160.445 30.8544C160.445 30.8982 161.366 30.9128 162.509 30.8982L164.572 30.8544L165.784 28.3739L166.979 25.9093H175.573L176.767 28.3739L177.978 30.8544L180.042 30.8982C181.185 30.9128 182.106 30.9128 182.106 30.869C182.106 30.7946 171.582 10.3091 171.377 10.0142C171.294 9.86672 171.087 10.1165 170.73 10.8113ZM172.708 19.9321C173.373 21.3191 173.919 22.4856 173.919 22.5586C173.919 22.6184 172.725 22.6623 171.275 22.6623C169.825 22.6623 168.632 22.633 168.632 22.5892C168.632 22.5148 170.167 19.2385 170.849 17.8807C171.054 17.4676 171.258 17.2165 171.344 17.2895C171.43 17.3639 172.044 18.5596 172.708 19.9321ZM2.03602 20.4037L2.08705 30.8544L3.99766 30.8982L5.92477 30.942L5.95929 26.47L6.01032 21.998L7.3911 21.9541L8.7719 21.9103L11.9282 26.3823L15.083 30.8544L17.3344 30.8982C18.8007 30.9274 19.5692 30.8836 19.5692 30.78C19.5692 30.6909 18.1538 28.6542 16.4128 26.2627C15.3488 24.7994 14.2971 23.3291 13.258 21.8518C13.258 21.8359 13.5657 21.7469 13.9229 21.6446C14.8955 21.4081 16.5163 20.3014 17.1467 19.4896C18.7167 17.4529 18.8352 14.8994 17.4709 12.8773C16.8556 11.9911 15.4597 10.899 14.3161 10.442L13.3435 10.0434L7.66427 9.99957L2 9.9544L2.03452 20.4037H2.03602ZM12.6096 13.4246C13.4111 13.7196 14.4016 14.7081 14.5547 15.3577C14.8279 16.6571 14.145 17.9857 12.9173 18.5317C12.3199 18.7975 11.9267 18.8267 9.07958 18.8267H5.92477V13.2161H8.97752C11.2453 13.2161 12.1669 13.2758 12.6096 13.4233V13.4246ZM28.6418 20.4037L28.6929 30.8544L35.2591 30.8982C38.8763 30.9128 41.893 30.9128 41.9966 30.869C42.0987 30.8397 42.1497 30.1755 42.1167 29.1711L42.0641 27.5328H32.532L32.5652 24.7588L32.6161 21.998L36.76 21.9541L40.8874 21.9249V18.8254H32.5306V13.2161L37.2373 13.1868L41.962 13.143L41.98 11.5633L41.995 9.96901H28.6074L28.6418 20.4037ZM52.8613 20.4037L52.9123 30.8544L57.6866 30.8982C60.4842 30.9128 62.9576 30.869 63.657 30.78C66.1125 30.4558 67.8864 29.3331 68.9776 27.4146C69.593 26.3517 69.6259 26.2189 69.6259 24.8903C69.6259 23.6069 69.575 23.385 69.0797 22.471C68.7068 21.799 68.2051 21.1895 67.5968 20.6694L66.6588 19.8723L67.3072 19.0167C68.4658 17.5114 68.7555 16.139 68.2617 14.4716C67.7153 12.6554 66.4531 11.3414 64.424 10.5004L63.3148 10.0434L58.0618 9.99957L52.8269 9.9544L52.8613 20.4037ZM63.2473 13.7342C65.1399 14.8994 65.1579 17.1128 63.2638 18.3524C62.668 18.751 62.6169 18.751 59.6992 18.7961L56.7485 18.84V13.2014L59.6303 13.2466L62.5133 13.2905L63.2473 13.7329V13.7342ZM64.2709 22.3966C65.1744 22.8549 65.5316 23.2681 65.8228 24.1968C66.0779 25.0391 65.8228 25.8508 65.0558 26.6028C64.1853 27.4597 63.8101 27.5328 60.0744 27.5328H56.7485V24.8318C56.7485 23.3412 56.8011 22.0724 56.8686 22.0126C56.9362 21.9541 58.455 21.9249 60.2455 21.9541C63.4184 21.998 63.5025 22.0126 64.2709 22.3966ZM80.15 20.4037L80.1996 30.8544L86.988 30.8982L93.7599 30.9274V27.5341H84.0372L84.0718 24.7601L84.1228 21.9993L88.2667 21.9555L92.3941 21.9262V18.8254H84.0372V13.2161L93.5888 13.2161V9.97034H80.1155L80.1486 20.405L80.15 20.4037ZM119.428 40.9635C113.816 42.2629 109.962 46.6166 109.962 51.6639C109.962 53.5385 110.371 55.0438 111.361 56.7564C111.94 57.7608 112.401 58.2763 113.628 59.3391C115.351 60.8298 116.716 61.5831 118.746 62.173C119.972 62.5277 120.348 62.5716 122.668 62.5716C125.022 62.5716 125.329 62.5423 126.591 62.173C128.602 61.5685 130.156 60.7116 131.707 59.3538C134.163 57.1988 135.187 55.1475 135.34 52.093C135.425 49.9234 135.085 48.4912 133.975 46.5728C133.397 45.5538 132.952 45.0529 131.623 43.9156C130.309 42.7797 129.728 42.3811 128.551 41.8789C126.472 40.9634 124.971 40.6698 122.582 40.6831C121.253 40.6977 120.246 40.7868 119.428 40.9635ZM124.715 44.1375C126.897 44.6397 128.415 45.5099 129.78 47.0604C133.429 51.1922 131.247 57.2586 125.482 58.9857C124.612 59.2515 123.998 59.3245 122.668 59.3245C121.338 59.3245 120.723 59.2515 119.854 58.9857C113.526 57.0806 111.667 50.2768 116.375 46.2181C118.575 44.2996 121.832 43.4878 124.715 44.1375ZM54.3622 51.531V62.0694H58.2839L58.2494 55.5021C58.2164 51.8857 58.2674 48.9337 58.3349 48.9337C58.4716 48.9337 61.2167 51.1484 70.4784 58.7346C72.2689 60.1961 73.9755 61.5977 74.2817 61.8342L74.8279 62.2766V41.1109H70.9047V47.7539C70.9047 51.3995 70.8717 54.3954 70.8192 54.3954C70.7351 54.3954 57.1418 43.3404 55.0091 41.5401L54.3622 40.994V51.531ZM2.0015 51.6346L2.0015 62.2168H5.92475L5.95928 56.1664L6.01032 50.1148L10.8371 54.9109L15.6804 59.7072L18.6821 56.7126C20.3361 55.0597 22.5018 52.9194 23.4909 51.9296L25.2829 50.144L25.3339 56.1811L25.367 62.2168H29.2902V41.0963L28.8129 41.5839C24.1572 46.2925 15.7314 54.5429 15.6294 54.5137C15.4927 54.4685 13.8388 52.845 6.28196 45.3186C4.08321 43.1185 2.22513 41.2743 2.13958 41.1853C2.06904 41.1109 2 45.8195 2 51.6346H2.0015ZM39.8639 51.5908V62.0694H43.7871V41.1123H39.8639V51.5921V51.5908ZM85.0608 51.5908V62.0694H88.9842V56.9039C88.9842 54.0553 89.0352 51.7383 89.1193 51.7383C89.1883 51.7383 91.7803 54.0699 94.8675 56.9039L100.496 62.0547H103.208L105.902 62.0694L100.002 56.8454L94.1006 51.6346L96.7782 49.1409C98.3794 47.639 99.9885 46.1434 101.605 44.6543C102.782 43.5622 104.129 42.3067 104.572 41.8789L105.408 41.1109H102.867L100.326 41.1269L98.7218 42.6322C97.8362 43.4586 95.2937 45.8208 93.0935 47.8708L89.0697 51.62L89.0172 46.3655L88.9842 41.1109H85.0608V51.5908ZM145.096 51.5908V62.0694H149.019V53.2156H157.376V50.1161H149.019V44.3434L153.709 44.3886L158.399 44.4325V41.111H145.096V51.5908ZM168.632 51.5908V62.0694H172.555V53.2156H180.912V50.1161H172.555V44.3434L177.246 44.3886L181.935 44.4325V41.111H168.632V51.5908Z" fill="black"/>
</g>
<defs>
<filter id="filter0_d_4_303" x="0" y="-4" width="237" height="96" filterUnits="userSpaceOnUse" color-interpolation-filters="sRGB">
<feFlood flood-opacity="0" result="BackgroundImageFix"/>
<feColorMatrix in="SourceAlpha" type="matrix" values="0 0 0 0 0 0 0 0 0 0 0 0 0 0 0 0 0 0 127 0" result="hardAlpha"/>
<feOffset dx="15" dy="8"/>
<feGaussianBlur stdDeviation="8.5"/>
<feComposite in2="hardAlpha" operator="out"/>
<feColorMatrix type="matrix" values="0 0 0 0 0 0 0 0 0 0 0 0 0 0 0 0 0 0 0.25 0"/>
<feBlend mode="normal" in2="BackgroundImageFix" result="effect1_dropShadow_4_303"/>
<feBlend mode="normal" in="SourceGraphic" in2="effect1_dropShadow_4_303" result="shape"/>
</filter>
<clipPath id="clip0_4_303">
<rect width="203" height="62" fill="white" transform="translate(2 5)"/>
</clipPath>
</defs>
</svg>
