<svg id="Layer_23" data-name="Layer 23" xmlns="http://www.w3.org/2000/svg" viewBox="0 0 168 72"><defs><style>.cls-1{fill-opacity:0;}</style></defs><title>moose_knuckles</title><rect id="ee-background" class="cls-1" y="23.47" width="168.45" height="25.31"/><path d="M21.11,47.53c0,.14-.19.14-.6.14H17.14c-.57,0-.65-.05-.65-.14s1.38-.05,1.38-.81a1.25,1.25,0,0,0-.09-.46l-1.72-5.58-3.6,6.45a1.15,1.15,0,0,1-.94.73.61.61,0,0,1-.59-.41L7.47,40.73l-1.59,5a3.51,3.51,0,0,0-.22.89c0,.43.24.7,1,.7.21,0,.32.09.32.17s-.08.13-.32.13H3.5c-.22,0-.3,0-.3-.13s.11-.17.27-.19l.27,0c.54,0,.84-.73,1-1.3l1.65-5.26a2.45,2.45,0,0,0,.08-.62C6.5,39,4.9,39.27,4.9,39s.19-.19.41-.19h2a1.3,1.3,0,0,1,1.43.73L12,45.91l3.59-6.45a1.25,1.25,0,0,1,1.3-.68h1.72c.49,0,.65.06.65.16,0,.36-1.54,0-1.54,1.06a3.19,3.19,0,0,0,.06.52l1.91,6a1.22,1.22,0,0,0,1,.7c.24.11.46.14.46.27M51.89,48a12.88,12.88,0,0,1-3.7-.43c-.33,0-.46,0-.46-.7v-.11a11.43,11.43,0,0,1,.11-1.65c0-.14.08-.38.19-.38s.19.65.27.84a2,2,0,0,0,1.32,1.49,5.15,5.15,0,0,0,1.57.16c.91,0,3.72-.08,3.72-1.68,0-1.44-1.83-1.74-2.83-1.87l-1.22-.14c-1.37-.16-3.37-.51-3.37-2.54,0-1.71,2.43-2.39,4.24-2.39a13.7,13.7,0,0,1,3.83.44c.32,0,.46,0,.46.7v.11a11,11,0,0,1-.11,1.62c0,.14-.08.38-.19.38s-.19-.65-.27-.84c-.43-1.32-1.13-1.62-3.51-1.62-.73,0-2.83.24-2.83,1.38s1,1.19,1.89,1.3a5.29,5.29,0,0,0,.54,0c1.81.25,4.94.68,4.94,2.85,0,2.52-2.73,3-4.59,3m6.8-7.58c0-1.68-1.48-.9-1.48-1.36,0-.16.24-.16.46-.16h7.8a8.82,8.82,0,0,0,.89,0c.3,0,.33,0,.33.27v.17c0,.38-.27,1.87-.52,1.87S66,41,66,40.87c-.11-1.22-.79-1.28-2.38-1.28h-1c-.54,0-2.18-.08-2.18.33v2.65H64c.86-.16.35-1.13.89-1.13.16,0,.3.13.3.43V44c0,.3-.16.46-.3.46-.51,0,0-.87-.84-1.14h-3.7v3.36c0,.19.14.22.25.22,1.21.08,1.83.08,2.43.08h.59c1.19,0,2.73-.11,2.73-1.41,0-.24.43-.24.51,0,0,.75,0,2.16-1.21,2.16h-8c-.21,0-.46,0-.46-.16,0-.32,1.08,0,1.41-.65a3.2,3.2,0,0,0,.08-1V40.41ZM77.51,43.6l3.89-3.41a1,1,0,0,0,.41-.62c0-.36-.68-.33-.68-.6,0,0,.06-.11.22-.11h3.18c.11,0,.25.08.25.17s-.06.1-.22.16a6.13,6.13,0,0,0-2.27,1.33l-1.43,1.27c.24.32.43.68.68,1a22.69,22.69,0,0,0,3.62,4.5,4.47,4.47,0,0,0,2,1.11c.41.14.57.06.57.19s-.27.16-.57.16c-3.51,0-5-2.25-6.83-4.79l-.76-1.09-2,1.82v1.19a2.72,2.72,0,0,0,.08.95,1,1,0,0,0,.87.46c.05,0,.54,0,.54.19s-.25.16-.46.16H74.81c-.21,0-.46,0-.46-.16s.49-.19.54-.19a1,1,0,0,0,.87-.46,3.22,3.22,0,0,0,.08-1V40.6a5.47,5.47,0,0,0-.08-.9,1,1,0,0,0-.87-.46s-.54,0-.54-.19.25-.16.46-.16h3.76c.21,0,.46,0,.46.16s-.49.19-.54.19a1,1,0,0,0-.87.46,3.22,3.22,0,0,0-.08,1Z"/><path d="M98,47.59c0,.3-.27.35-.62.35a1.48,1.48,0,0,1-.89-.24l-7.83-7.4v5.5a3.26,3.26,0,0,0,.08,1,1,1,0,0,0,.86.46c.06,0,.54,0,.54.19s-.24.16-.46.16h-3c-.22,0-.46,0-.46-.16s.49-.19.54-.19a1,1,0,0,0,.87-.46,3.53,3.53,0,0,0,.08-1v-5c0-1-.08-1.36-1-1.58l-.16,0c-.27-.06-.46-.11-.46-.16s.41-.17.68-.17h1.73a3.11,3.11,0,0,1,2.18,1.22L97,46V40.73a3.26,3.26,0,0,0-.08-1,1,1,0,0,0-.86-.46c-.06,0-.54,0-.54-.19s.24-.16.46-.16h3c.22,0,.46,0,.46.16s-.49.19-.54.19a1,1,0,0,0-.86.46,3.22,3.22,0,0,0-.09,1v6.86Zm3.51-4.2v-3a3.22,3.22,0,0,0-.08-.71,1,1,0,0,0-.86-.46c-.06,0-.54,0-.54-.19s.24-.16.46-.16h3.78c.21,0,.45,0,.45.16s-.48.19-.54.19a1,1,0,0,0-.86.46,1.53,1.53,0,0,0-.08.71v2.84a3.81,3.81,0,0,0,3.48,4,3.65,3.65,0,0,0,3.35-3.71V40.73a3.26,3.26,0,0,0-.08-1,1,1,0,0,0-.86-.46c-.06,0-.54,0-.54-.19s.24-.16.46-.16h3c.22,0,.46,0,.46.16s-.49.19-.54.19a1,1,0,0,0-.87.46,1.68,1.68,0,0,0-.08.71V43a8,8,0,0,1,0,1.11,4.64,4.64,0,0,1-4.7,3.85,4.86,4.86,0,0,1-4.45-2.66,8.3,8.3,0,0,1-.33-1.89m12.56-.08c0,2.38,2.29,3.95,4.45,3.95,1.81,0,3.38-.43,4-2.41.06-.05.11-.11.19-.11.33,0,.33,1.2.33,1.71v.24c0,.79-.17.71-.49.71h-.08a12.33,12.33,0,0,1-3.73.59c-2.67,0-6.64-1.32-6.64-4.71,0-3.09,3.64-4.69,6.4-4.69a13.14,13.14,0,0,1,3.94.68h.06c.29,0,.51,0,.51.7v.36c0,.54,0,1.62-.33,1.62,0,0-.1-.05-.18-.13-.54-1.93-1.92-2.5-3.87-2.5s-4.53,1.41-4.53,4m12.69.29,3.89-3.41a1,1,0,0,0,.4-.62c0-.36-.67-.33-.67-.6,0,0,0-.11.21-.11h3.19c.11,0,.24.08.24.17s-.05.1-.21.16a6.13,6.13,0,0,0-2.27,1.33l-1.43,1.27c.24.32.43.68.67,1a23.43,23.43,0,0,0,3.62,4.5,4.56,4.56,0,0,0,2,1.11c.4.14.56.06.56.19s-.27.16-.56.16c-3.51,0-5-2.25-6.84-4.79l-.75-1.09-2,1.82v1.19a2.72,2.72,0,0,0,.08.95,1,1,0,0,0,.86.46c.05,0,.54,0,.54.19s-.24.16-.46.16H124c-.22,0-.46,0-.46-.16s.49-.19.54-.19a1,1,0,0,0,.86-.46,3.22,3.22,0,0,0,.08-1V40.6a4.56,4.56,0,0,0-.08-.9,1,1,0,0,0-.86-.46c-.05,0-.54,0-.54-.19s.24-.16.46-.16h3.75c.24,0,.46,0,.46.16s-.49.19-.54.19a1,1,0,0,0-.86.46,3.22,3.22,0,0,0-.08,1V43.6Z"/><path d="M137,40.49a3.71,3.71,0,0,0-.08-.81,1,1,0,0,0-.86-.47c-.06,0-.54,0-.54-.18s.24-.17.46-.17h3.75c.22,0,.46,0,.46.17s-.49.18-.54.18a1,1,0,0,0-.87.47,2.24,2.24,0,0,0-.08.81v5.82c0,.33,0,.57.22.57.84,0,2.21.08,3.24.08a8.17,8.17,0,0,0,1.65-.13,1.26,1.26,0,0,0,1-.81c.14-.33.25-.71.35-1a.21.21,0,0,1,.22-.16s.11,0,.11.13l-.19,1.9c0,.76-1.76.68-2.38.68h-7c-.21,0-.46,0-.46-.17s.49-.19.54-.19a1,1,0,0,0,.87-.46,3.2,3.2,0,0,0,.08-1V40.49Zm10.13-.08c0-1.68-1.49-.9-1.49-1.36,0-.16.25-.16.46-.16h7.81c.29,0,.59,0,.89,0s.32,0,.32.27v.17c0,.38-.27,1.87-.51,1.87s-.19-.14-.22-.3c-.11-1.22-.78-1.28-2.37-1.28h-1c-.54,0-2.19-.08-2.19.33v2.65h3.7c.87-.16.35-1.13.89-1.13.17,0,.3.13.3.43V44c0,.3-.16.46-.3.46-.51,0,0-.87-.83-1.14h-3.7v3.36c0,.19.13.22.24.22,1.21.08,1.84.08,2.43.08h.59c1.19,0,2.73-.11,2.73-1.41,0-.24.43-.24.51,0,0,.75,0,2.16-1.21,2.16h-8.05c-.21,0-.46,0-.46-.16,0-.32,1.08,0,1.41-.65a3.2,3.2,0,0,0,.08-1V40.41ZM160.6,48a12.92,12.92,0,0,1-3.7-.43c-.32,0-.46,0-.46-.7v-.11a11.43,11.43,0,0,1,.11-1.65c0-.14.08-.38.19-.38s.19.65.27.84a2,2,0,0,0,1.32,1.49,5.15,5.15,0,0,0,1.57.16c.92,0,3.72-.08,3.72-1.68,0-1.44-1.83-1.74-2.83-1.87l-1.22-.14c-1.37-.16-3.37-.51-3.37-2.54,0-1.71,2.43-2.39,4.24-2.39a13.7,13.7,0,0,1,3.83.44c.33,0,.46,0,.46.7v.11a11,11,0,0,1-.11,1.62c0,.14-.08.38-.19.38s-.18-.65-.27-.84c-.43-1.32-1.13-1.62-3.51-1.62-.73,0-2.83.24-2.83,1.38s1.05,1.19,1.89,1.3a5.29,5.29,0,0,0,.54,0c1.81.25,4.94.68,4.94,2.85,0,2.52-2.73,3-4.59,3M40.22,47.43a4.51,4.51,0,0,1-4.29-2.71,4.58,4.58,0,0,1,.89-5,4.55,4.55,0,1,1,3.4,7.73m4.89-8.49a75.58,75.58,0,0,0-4.72-7.5A69.48,69.48,0,0,0,34,23.77V38.94c0,1.39,0,2.79.13,4.18.44,4.55,3.57,6,6.27,6a5.86,5.86,0,0,0,5.8-6,8.43,8.43,0,0,0-1.13-4.18M22.46,42.87a4.39,4.39,0,0,1,8.77.19,4.39,4.39,0,1,1-8.77-.19m-1.65.25a5.88,5.88,0,0,0,5.8,6c2.7,0,5.84-1.41,6.27-6A41.69,41.69,0,0,0,33,38.94c0-6.36,0-7.26,0-15.17a66.72,66.72,0,0,0-6.34,7.67,73.87,73.87,0,0,0-4.73,7.5,8.43,8.43,0,0,0-1.13,4.18"/></svg>