<svg id="Layer_5" data-name="Layer 5" xmlns="http://www.w3.org/2000/svg" viewBox="0 0 168 72"><title>Neiwai</title><path d="M115.22,46.61c1.66-4,3.15-7.69,4.65-11.33,1.72-4.26,3.52-8.49,5.1-12.8.65-1.75,1.58-2.2,2.88-1.81-4.49,10.86-9,21.72-13.57,32.91-3.63-8.8-7.16-17.31-10.88-26.34-3.75,8.91-7.33,17.43-11.05,26.34-4.65-11.19-9.14-22-13.59-32.74,2.93-.9,3.75-.53,5,2.46Q88.12,34.16,92.57,45c.2.51.48,1,.85,1.69C97,37.85,100.5,29.25,104,20.65l.6-.09C108.05,29.1,111.55,37.65,115.22,46.61Z"/><path d="M4.12,52.82H2.18V19.57c.14-.08.28-.19.42-.28,8,9,16,18,24.3,27.3V20.7c.77-.05,1.36-.11,2-.17V54.48C20.5,45,12.5,36,4.12,26.57Z"/><path d="M43.4,33H54.82c.2,1.43-.59,1.66-1.69,1.66-3.19,0-6.38,0-9.73,0V51.3H56.91a3,3,0,0,0,.28.39c-.54.42-1.07,1.21-1.61,1.21C50.34,53,45.09,53,39.79,53V20.59c5,0,10.15-.06,15.25.06.68,0,1.33.93,2.4,1.74H43.37C43.4,25.81,43.4,29.27,43.4,33Z"/><path d="M165.24,20.7V52.85h-3.59V20.7Z"/><path d="M66.58,20.67h3.61V52.85H66.58Z"/><path d="M140.79,20c-4.68,11.36-9.16,22.16-13.59,32.93,1.46.51,2.37-.14,3-1.83,1-2.9,2.37-5.7,3.47-8.57a1.9,1.9,0,0,1,2.08-1.5c2.77.09,5.56.09,8.32,0a1.89,1.89,0,0,1,2.12,1.47c.93,2.57,2,5.1,3,7.64,1.3,3.22,1.92,3.5,5.11,2.65C149.9,42.05,145.47,31.3,140.79,20Zm-5.58,18.75c1.55-3.83,3.07-7.5,4.73-11.59,1.64,4.09,3.1,7.7,4.66,11.59Z"/></svg>